<svg width="582" height="535" viewBox="0 0 582 535" fill="none" xmlns="http://www.w3.org/2000/svg">
<path d="M359.263 7.12895C349.952 8.7263 344.675 10.349 338.75 13.4676C322.582 21.9868 315.67 36.363 318.943 54.7706C319.253 56.5708 319.62 58.1428 319.733 58.2442C319.817 58.3456 320.974 57.585 322.272 56.5454C329.721 50.5617 338.75 46.0485 347.864 43.7412C352.519 42.5749 357.852 41.865 357.429 42.4735C357.062 42.9806 347.328 49.3954 339.089 54.517C321.68 65.3689 311.719 72.3414 309.547 75.2065C306.105 79.6943 301.929 88.9995 300.546 95.2114C299.671 99.1161 299.587 106.596 300.405 109.917C301.562 114.735 303.65 119.298 306.302 122.924L307.572 124.648L306.358 126.778C303.904 131.114 303.114 136.033 304.186 140.596C304.694 142.802 305.992 146.251 306.5 146.758C306.612 146.884 307.29 146.073 307.995 144.983C310.027 141.814 312.566 138.898 315.783 136.033C319.563 132.686 323.175 130.353 327.52 128.426C331.16 126.829 332.176 126.474 332.176 126.854C332.176 127.235 328.085 132.889 325.46 136.134C324.106 137.782 320.72 141.763 317.927 145.008C311.861 151.981 308.023 156.671 305.794 159.841C304.919 161.108 304.073 162.072 303.932 161.996C303.791 161.92 303.678 161.514 303.678 161.083C303.678 160.652 303.622 160.348 303.537 160.424C303.255 160.677 301.759 168.03 301.223 171.656C300.518 176.676 300.518 187.401 301.251 191.686C301.816 195.059 303.283 200.51 304.242 202.817L304.863 204.288L306.189 202.056C307.769 199.369 310.337 195.895 312.651 193.309C314.992 190.698 320.861 185.652 323.655 183.877C325.968 182.381 330.116 180.15 330.568 180.15C330.878 180.15 327.746 185.525 325.376 189.024C323.175 192.295 318.632 198.38 313.328 205.175C308.39 211.488 305.597 215.292 303.65 218.41C302.352 220.464 302.126 220.718 301.957 220.185C301.844 219.703 301.731 219.856 301.449 220.971C297.724 236.184 300.095 252.081 307.967 264.505C308.729 265.722 309.462 266.813 309.575 266.939C309.688 267.041 310.393 266.305 311.155 265.291C314.231 261.184 321.256 255.809 326.928 253.248C331.499 251.169 337.452 249.622 340.81 249.622H342.164L341.064 250.662C338.468 253.07 331.019 258.724 317.278 268.714C315.529 270.007 312.876 271.934 311.381 273.024C309.914 274.115 307.939 275.459 307.036 276.016L305.343 277.031L305.512 276.321L305.71 275.611L305.117 276.371C304.271 277.512 302.832 280.884 302.38 282.786C301.872 285.017 301.872 288.187 302.408 290.063C302.916 291.787 303.932 293.866 304.666 294.627C304.948 294.931 304.863 294.728 304.524 294.17L303.875 293.182L306.105 294.196C313.469 297.517 321.623 299.571 337.396 302.106C356.78 305.2 361.464 305.986 365.583 306.822C368.094 307.33 370.295 307.811 370.521 307.938C371.029 308.192 365.865 309.282 361.379 309.89C357.147 310.448 344.845 310.524 340.358 310.017C327.041 308.521 316.262 304.743 308.954 298.988C307.91 298.151 306.979 297.517 306.923 297.593C306.866 297.644 306.5 298.76 306.133 300.078C304.496 305.681 303.819 311.716 304.045 318.08C304.412 327.385 306.048 335.22 309.801 345.286L311.663 350.331L312.82 348.252C316.319 341.989 323.768 336.944 330.991 335.955C332.543 335.727 332.543 335.93 330.737 338.744C328.395 342.446 325.602 345.539 319.479 351.168C316.29 354.084 313.384 356.873 313.017 357.304C311.945 358.698 311.719 358.419 311.183 355.25L310.845 353.247L309.66 356.645C307.233 363.516 305.568 370.412 304.637 377.41C303.904 382.811 303.96 391.583 304.75 396.325C306.105 404.286 308.785 410.777 313.187 416.659C315.472 419.702 315.952 419.854 314.654 417.09C313.892 415.518 312.002 408.115 312.199 407.557C312.256 407.43 313.243 408.596 314.4 410.118C323.909 422.668 332.486 429.007 344.732 432.506C350.657 434.23 357.006 435.143 364.567 435.396L369.477 435.549L368.772 434.306C367.671 432.303 366.655 429.666 366.035 427.232C365.414 424.874 364.962 418.637 365.301 417.8C365.499 417.395 365.583 417.42 366.232 418.105C368.377 420.412 371.565 424.494 374.584 428.88C379.042 435.32 380.932 437.729 383.359 439.986C385.56 442.039 387.817 443.231 390.103 443.485L391.542 443.662L390.498 444.474C387.535 446.781 381.92 446.4 377.406 443.637C375.825 442.673 372.581 439.808 371.593 438.54L371.142 437.932L368.235 438.718C349.105 443.89 329.552 438.617 319.704 425.61C318.435 423.961 317.617 423.074 317.56 423.328C317.419 423.961 318.04 434.23 318.35 436.994C319.648 447.668 323.457 456.34 329.467 462.349C332.543 465.442 339.004 469.93 342.418 471.375C344.026 472.06 343.716 472.313 341.431 472.136C336.831 471.755 334.123 471.071 330.201 469.372C325.94 467.496 320.664 463.49 318.322 460.32C318.068 459.965 317.758 459.762 317.673 459.839C317.334 460.117 315.585 467.521 314.936 471.502C314.061 476.699 313.977 486.639 314.767 490.619C315.529 494.372 317.334 499.012 319.027 501.572C320.777 504.235 324.219 507.582 326.758 509.103C329.326 510.624 335.844 513.439 338.101 513.996C340.951 514.681 347.13 514.63 350.093 513.87C352.35 513.286 356.836 511.435 358.106 510.573L358.755 510.092L357.598 508.723C351.786 501.927 350.516 489.605 354.777 481.162C355.764 479.159 355.736 479.133 357.147 482.886C358.332 486.131 359.46 490.34 360.815 496.704C362.987 506.897 363.298 507.86 366.26 513.413C366.345 513.54 366.147 513.565 365.865 513.464C365.386 513.312 365.414 513.337 365.922 513.844C366.938 514.858 372.101 518.459 375.007 520.208C382.625 524.721 389.708 527.308 397.805 528.525C400.966 529.006 402.151 529.057 406.806 528.956C410.813 528.854 412.873 528.702 414.989 528.271C426.952 525.964 438.069 519.955 448.706 510.117C451.951 507.1 456.325 502.637 456.325 502.358C456.325 502.282 455.394 502.156 454.265 502.08C449.355 501.75 444.897 498.454 443.176 493.865L442.584 492.293L441.201 493.56C439.988 494.676 436.009 497.085 435.389 497.085C435.248 497.085 435.586 496.299 436.122 495.361C441.088 486.486 442.076 478.702 441.088 455.807C440.891 451.04 440.806 447.06 440.863 446.984C441.314 446.578 445.264 453.196 446.59 456.568C447.014 457.658 447.409 458.545 447.465 458.545C447.521 458.545 448.622 457.937 449.892 457.176C454.575 454.438 459.711 452.511 464.169 451.826C466.849 451.395 473 451.319 471.279 451.725C466.2 452.917 464.197 453.703 460.501 455.909C457.369 457.785 453.56 461.081 451.02 464.098C449.412 466 449.243 466.329 449.384 467.141C450.343 473.15 449.355 480.629 446.901 485.726L445.913 487.779L446.731 488.718C447.775 489.909 451.189 492.8 452.741 493.814C454.66 495.082 457.34 496.172 461.347 497.364C463.379 497.972 465.072 498.555 465.072 498.657C465.072 498.834 462.955 500.406 461.799 501.065C460.698 501.699 470.263 500.913 476.076 499.874C502.598 495.132 518.427 480.68 522.067 457.912L522.406 455.858L524.973 454.311C531.689 450.254 538.799 444.271 543.878 438.388C551.609 429.438 556.349 419.6 558.381 408.292C559.086 404.261 559.086 393.561 558.381 389.2C557.393 383.216 555.672 377.081 553.387 371.274L552.23 368.333L549.916 368.46C545.994 368.663 542.157 367.649 539.194 365.62L537.896 364.733L536.26 367.598C532.31 374.418 528.049 378.729 522.095 381.847C521.729 382.025 522.632 380.478 524.183 378.171C525.312 376.523 527.71 371.35 529.121 367.522C531.886 360.118 533.72 352.892 537.191 335.955C539.561 324.317 540.915 318.308 541.226 318.004C541.48 317.75 542.552 321.858 543.173 325.534C543.539 327.715 543.652 330.123 543.652 336.133C543.652 340.443 543.709 343.942 543.765 343.942C544.301 343.942 553.076 337.552 562.528 330.276C566.45 327.258 570.739 324.064 572.094 323.151C574.436 321.554 574.548 321.427 575.818 319.018C577.511 315.823 579.684 309.916 580.558 306.036C581.828 300.636 582.026 298.531 581.997 291.711C581.997 286.361 581.884 284.612 581.348 281.569C580.502 276.6 579.26 271.782 577.68 267.37L576.354 263.719L575.564 266.356C571.84 278.881 563.375 290.519 554.29 295.616L553.048 296.3L553.246 295.717C553.471 295.108 554.769 292.294 559.227 282.837C562.472 275.966 566.987 267.548 569.78 263.136C571.981 259.637 576.016 254.034 577.229 252.791L577.962 252.031L577.821 254.059C577.624 256.645 577.991 255.91 578.668 252.411C579.853 245.971 578.329 239.734 574.407 234.789C572.884 232.888 569.554 229.947 567.382 228.603L565.717 227.563L564.814 229.389C562.895 233.344 559.904 237.147 556.152 240.393C551.045 244.779 544.724 247.923 539.279 248.735L538.037 248.937L541.367 245.793C553.048 234.84 559.312 225.231 563.798 211.336C564.475 209.308 565.237 206.975 565.548 206.164C566.225 204.237 566.225 202.792 565.519 199.673C563.855 192.396 559.933 185.627 553.725 179.389L552.597 178.248L552.427 180.023C552.202 182.305 550.988 187.122 550.057 189.404C548.449 193.461 545.176 198.152 542.693 199.901C541.395 200.839 541.113 200.814 541.508 199.876C542.016 198.684 542.975 194.247 543.511 190.596C544.329 185.17 544.47 177.741 544.104 163.923C543.906 156.57 543.85 151.017 543.991 150.105L544.245 148.583L546.558 152.767C547.828 155.074 548.872 156.824 548.872 156.646C548.872 156.088 547.236 151.854 546.107 149.572C540.407 137.757 528.303 127.691 511.571 120.794C507.818 119.273 508.016 119.552 508.693 116.509C508.919 115.47 509.173 112.377 509.286 109.664C509.455 103.984 509.06 100.79 507.649 96.8849C504.094 87.1486 495.149 81.1903 482.735 80.3535C481.408 80.2521 480.308 80.1507 480.308 80.1254C480.308 80.1254 480.731 79.314 481.267 78.3252C483.158 74.9023 483.553 73.2289 483.525 68.9693C483.525 65.521 483.44 64.9632 482.735 63.0109C480.534 56.9764 475.765 51.2209 468.683 45.9725C467.103 44.8061 464.62 42.9045 463.125 41.7382C453.983 34.5628 444.926 30.075 436.574 28.5284C434.091 28.072 432.99 27.9959 429.802 28.0974C425.626 28.2495 423.736 28.6044 420.604 29.9229L418.6 30.7342L414.819 27.4128C412.732 25.5872 409.91 23.3307 408.499 22.3925C404.182 19.5021 398.793 17.2455 394.956 16.7384C394.222 16.637 391.711 15.7242 389.313 14.71C381.074 11.1604 373.173 8.59953 367.474 7.63604C365.019 7.20501 360.42 6.92611 359.263 7.12895ZM392.416 18.564C396.282 19.426 400.232 22.0122 402.405 25.0801C405.085 28.8833 405.96 32.0527 405.96 37.7829C405.96 42.1946 405.395 45.2372 403.928 48.9136C403.082 51.0434 401.53 53.8578 401.417 53.5028C401.361 53.3507 400.994 50.6377 400.599 47.4177C399.442 38.29 398.37 34.0811 396.282 30.43C394.391 27.1846 391.796 25.3337 387.422 24.1927C385.644 23.711 384.375 23.6349 378.167 23.4828L370.972 23.3307L372.947 22.1643C379.098 18.5132 386.265 17.1948 392.416 18.564ZM427.009 34.8671C435.756 35.7798 446.506 41.8143 453.362 49.6996C455.055 51.6519 457.171 54.5677 457.171 54.9734C457.171 55.5059 449.158 51.4491 440.665 46.581C428.645 39.6845 423.341 37.1744 419.503 36.5405C417.839 36.2616 417.782 36.1348 419.108 35.577C421.309 34.6896 423.482 34.5121 427.009 34.8671ZM425.908 55.6073C426.416 57.661 426.331 63.4673 425.767 65.6224L425.287 67.3212L427.122 69.7045C430.395 73.9641 433.047 79.5422 434.317 84.9428C435.191 88.6446 435.417 95.4904 434.74 99.04C433.555 105.455 430.451 111.337 426.444 114.861C425.118 116.002 425.09 115.926 425.711 113.112C426.811 107.889 427.093 104.745 427.093 98.1272C427.093 94.3747 426.952 90.2673 426.755 88.6192C426.275 84.7906 424.836 76.0686 424.215 73.1274L423.736 70.8202L422.353 72.6203C419.898 75.8658 416.512 78.0463 412.195 79.1619C409.205 79.9479 404.803 79.9732 401.361 79.2126C396.761 78.1984 390.893 75.2065 387.789 72.2907L386.83 71.4033L387.789 71.5047C388.325 71.5808 390.526 71.8597 392.727 72.1386C398.313 72.8739 403.956 73.1274 406.637 72.7471C409.712 72.3161 411.18 71.8343 413.352 70.5412C417.246 68.2086 420.463 63.8983 424.018 56.2412C424.61 54.9481 425.203 53.9592 425.316 54.0353C425.429 54.086 425.683 54.7959 425.908 55.6073ZM454.829 65.9267C459.965 68.0565 464.169 71.809 466.623 76.525C468.175 79.4661 468.768 81.9002 468.768 85.5766C468.768 87.3261 468.683 88.9488 468.599 89.177C468.457 89.4813 468.768 89.6588 469.925 90.0137C474.58 91.3575 479.038 94.679 480.957 98.254C482.594 101.246 482.989 102.945 482.96 106.875C482.932 111.058 482.17 113.949 480.139 117.726L478.784 120.186L478.587 115.749C478.192 107.28 476.612 102.919 472.859 99.8514C470.066 97.5441 466.765 96.5045 461.686 96.3017C459.908 96.251 458.3 96.1496 458.102 96.0989C457.905 96.0482 458.215 94.9579 459.033 92.9042C461.262 87.3768 461.855 83.3708 461.009 79.4408C460.049 75.029 457.651 70.7694 453.785 66.5605C452.995 65.7238 452.431 65.0393 452.516 65.0393C452.628 65.0393 453.644 65.4449 454.829 65.9267ZM378.054 96.2256C384.996 96.7074 391.796 97.7976 396.649 99.2175L398.906 99.8767L392.698 100.181C360.279 101.829 338.948 107.23 322.244 117.98C317.56 120.972 314.626 123.305 309.547 127.995C305.935 131.342 305.427 131.722 305.822 130.835C310.958 119.298 320.579 110.044 333.728 103.933C346.509 97.9751 362.762 95.1607 378.054 96.2256ZM455.817 114.633C453.616 120.617 450.625 126.525 447.409 131.266L445.913 133.472L449.214 135.83C459.626 143.309 466.539 146.707 481.211 151.55C484.286 152.564 486.798 153.477 486.798 153.553C486.798 153.756 484.117 154.466 482.001 154.821C479.067 155.302 473.282 155.175 469.953 154.567C459.033 152.564 450.061 146.453 445.659 138.086L444.305 135.5L443.346 136.717C441.878 138.543 437.561 142.498 435.445 143.893C427.347 149.293 418.854 149.09 411.941 143.386C410.785 142.397 409.176 140.799 408.358 139.836L406.863 138.036L405.903 139.506C400.712 147.265 391.429 152.209 379.888 153.401L378.337 153.553L381.807 152.006C390.723 147.975 396.649 143.107 399.781 137.174C401.981 132.99 402.207 131.798 402.405 123.685L402.574 116.535L407.088 123.812C412.478 132.508 414.368 135.12 416.823 137.3C419.362 139.557 421.422 140.444 424.018 140.419C428.024 140.419 431.749 138.416 437.42 133.269C439.536 131.367 442.358 128.553 443.712 127.032C446.421 123.964 452.403 116.509 455.224 112.656C456.212 111.312 457.058 110.348 457.115 110.526C457.171 110.729 456.579 112.554 455.817 114.633ZM373.653 120.465C373.653 120.845 370.098 126.55 366.119 132.584C361.379 139.734 358.445 144.603 356.865 147.924C355.595 150.586 354.184 154.364 354.212 154.973C354.212 155.277 355.228 156.012 357.09 157.077C366.514 162.478 375.713 170.718 381.074 178.578C382.343 180.454 382.597 180.682 383.641 180.911C394.871 183.446 407.004 189.328 415.271 196.225L417.839 198.355L417.754 193.233L417.669 188.137L418.346 189.404C418.713 190.089 420.237 193.512 421.761 197.011C428.419 212.3 432.285 218.664 437.985 223.76C441.935 227.31 444.954 228.856 449.638 229.769C454.011 230.606 461.037 229.795 467.442 227.715C468.994 227.234 470.291 226.853 470.348 226.904C470.574 227.082 466.454 230.327 464.564 231.468C462.109 232.939 458.187 234.536 456.043 234.942C455.196 235.119 454.462 235.271 454.434 235.297C454.406 235.297 454.858 236.361 455.478 237.629C461.799 250.839 456.945 265.57 444.136 271.858C441.286 273.253 437.11 274.571 434.542 274.825L432.934 275.002L432.765 276.447C431.354 287.071 425.005 295.438 414.707 300.179C412.365 301.27 407.483 302.867 406.524 302.867C405.988 302.867 405.932 302.74 407.088 304.794C408.499 307.304 409.684 310.702 410.22 313.77C410.841 317.294 410.644 323.252 409.769 326.701C409.459 328.019 409.12 329.388 409.035 329.743C408.922 330.326 409.12 330.453 412.365 331.772C416.005 333.217 421.168 336.133 424.018 338.338L425.711 339.657L425.936 338.82C426.049 338.364 426.67 336.564 427.263 334.814C430.507 325.636 437.985 317.776 448.424 312.603C450.061 311.817 451.443 311.107 451.5 311.082C451.556 311.031 451.02 310.423 450.343 309.738C448.763 308.166 447.183 305.326 446.562 302.994C445.885 300.382 446.167 294.931 447.126 291.838C449.553 283.978 455.196 276.219 464.112 268.359C468.514 264.531 472.408 261.691 477.43 258.724C481.013 256.595 486.798 253.729 486.798 254.059C486.798 254.313 483.412 258.04 475.06 267.015C460.811 282.38 455.535 289.353 452.741 296.655C451.726 299.343 451.697 299.571 451.669 302.867C451.669 305.732 451.782 306.569 452.29 308.065C452.657 309.028 453.023 309.966 453.165 310.144C453.306 310.372 453.955 310.245 455.648 309.713C461.375 307.913 469.247 306.949 474.721 307.406C479.772 307.837 479.772 307.837 475.145 309.333C458.272 314.86 446.195 321.477 437.364 330.022C434.401 332.887 429.435 338.567 428.391 340.291L427.742 341.356L429.633 343.333C434.853 348.785 439.029 356.112 440.411 362.197C440.665 363.338 440.806 364.302 440.75 364.378C440.665 364.428 439.706 363.262 438.605 361.741C429.068 348.785 416.766 340.215 402.151 336.259C397.58 335.017 390.639 333.876 385.503 333.521C381.271 333.217 365.357 333.293 365.019 333.622C364.934 333.698 365.386 334.484 366.063 335.347C368.659 338.82 369.731 343.232 368.941 347.314C368.574 349.292 368.405 349.723 368.179 349.495C368.123 349.444 367.615 348.556 367.05 347.542C365.273 344.347 363.523 342.167 360.871 339.758C356.046 335.423 352.237 333.622 336.041 327.968C333.135 326.954 330.85 326.016 330.963 325.915C331.075 325.813 331.95 325.56 332.881 325.331C342.587 323.126 353.817 325.179 361.153 330.504C362.028 331.138 362.874 331.746 363.072 331.873C363.269 332.025 364.821 331.619 367.333 330.808C369.844 329.997 373.06 329.211 376.333 328.602C380.932 327.74 381.948 327.639 387.196 327.537C393.46 327.385 398.652 327.791 402.715 328.729C403.872 328.982 404.859 329.16 404.944 329.109C405.311 328.78 403.759 320.058 402.517 315.595C399.865 305.808 394.561 298.379 385.475 291.812C384.375 291.001 383.613 290.291 383.782 290.24C384.431 290.038 388.579 290.722 390.61 291.331C393.093 292.091 395.774 293.384 398.257 295.058C400.232 296.351 403.505 299.368 404.351 300.636C404.605 301.016 404.888 301.346 405 301.346C405.508 301.346 411.349 296.934 413.719 294.779C419.588 289.404 422.833 283.876 424.469 276.574C425.88 270.134 425.372 259.561 423.171 249.014C422.946 247.898 422.805 246.96 422.861 246.884C423.2 246.605 426.049 250.611 427.827 253.806C430.874 259.308 432.482 264.48 432.821 269.83C432.906 271.275 433.075 272.441 433.16 272.441C433.555 272.441 438.267 268.968 440.326 267.142C446.844 261.437 449.835 256.011 451.359 247.087C451.726 245.109 452.375 237.883 452.375 236.133C452.375 235.728 452.064 235.677 449.497 235.677C442.64 235.652 436.856 233.395 431.495 228.578C426.275 223.912 421.845 216.179 419.757 208.218L419.249 206.265L415.863 204.262C413.973 203.172 410.305 201.042 407.653 199.546C400.571 195.49 392.586 190.647 388.748 188.061C386.886 186.793 385.334 185.804 385.278 185.829C385.249 185.88 385.475 186.463 385.786 187.122C387.563 190.85 388.381 197.112 387.591 201.068C387.309 202.386 387.027 203.476 386.914 203.476C386.801 203.476 386.435 202.538 386.096 201.372C383.782 193.816 378.139 185.728 367.333 174.572C365.781 172.975 361.379 168.563 357.57 164.81C347.666 155.049 343.914 151.144 344.28 151.043C344.45 150.992 346.171 151.626 348.089 152.463L351.56 153.958L351.193 152.412C350.742 150.536 350.685 146.301 351.109 144.248C352.858 135.247 360.815 125.891 370.352 121.58C373.06 120.338 373.653 120.161 373.653 120.465ZM531.661 155.302C535.046 161.337 536.824 168.664 536.796 176.626C536.768 187.985 533.043 197.898 525.707 206.164C522.998 209.232 518.625 212.858 515.69 214.506C514.393 215.216 513.941 215.621 514.054 215.9C514.139 216.103 514.618 217.7 515.126 219.45L516.057 222.619L522.237 222.797C528.557 222.949 531.407 223.278 535.103 224.293C536.88 224.749 540.972 226.397 540.972 226.651C540.972 226.676 540.041 226.549 538.94 226.372C534.539 225.586 527.682 226.346 520.741 228.349C518.089 229.135 517.271 229.465 517.271 229.795C517.299 230.023 517.412 231.392 517.553 232.837C517.976 236.945 517.468 244.576 516.424 250.104C515.944 252.665 515.606 254.794 515.634 254.82C515.69 254.87 517.045 255.378 518.681 255.961C531.181 260.423 540.21 266.838 543.003 273.253C543.398 274.14 543.793 275.256 543.878 275.737C544.047 276.473 543.878 276.321 543.003 274.85C539.505 268.968 530.758 264.556 517.92 262.249C515.521 261.818 513.546 261.513 513.49 261.564C513.433 261.615 512.869 263.187 512.22 265.063C510.555 269.779 503.783 282.837 503.755 281.315C503.727 280.961 504.32 278.172 505.025 275.104C507 266.432 508.693 257.127 509.144 252.411C509.286 250.814 509.483 246.174 509.568 242.142C509.681 235.677 509.624 234.257 509.116 230.352C506.605 211.641 497.463 196.757 481.634 185.525C480.421 184.663 479.546 183.953 479.716 183.953C480.308 183.953 483.581 185.17 486.177 186.336C490.861 188.441 494.754 190.9 498.422 194.07C499.72 195.16 500.369 195.566 500.454 195.337C501.131 193.563 502.232 188.365 502.57 185.246C502.993 181.621 502.937 176.6 502.457 172.543C502.091 169.374 500.51 159.207 500.2 157.888C499.946 156.95 500.539 157.255 502.542 159.055C506.013 162.148 508.749 166.509 510.132 171.149C510.837 173.456 510.894 174.09 510.894 178.248C510.894 182.483 510.837 182.964 510.104 185.094C508.665 189.328 505.815 193.309 502.598 195.591C501.413 196.428 501.272 196.631 501.639 196.884C501.865 197.062 503.106 198.431 504.404 199.927C507.169 203.096 510.273 207.761 511.769 210.956C512.361 212.198 512.897 213.289 512.982 213.365C513.546 213.973 520.487 203.375 523.083 197.898C528.049 187.401 530.137 177.209 530.447 161.945C530.532 157.457 530.645 153.781 530.701 153.781C530.758 153.781 531.181 154.466 531.661 155.302ZM356.046 193.892C357.26 194.906 358.981 196.656 359.912 197.772C362.225 200.586 364.934 205.708 366.035 209.308C367.05 212.756 367.558 217.599 367.163 220.337C366.796 222.898 366.768 222.873 367.981 221.935C370.718 219.83 375.43 217.878 379.522 217.117C381.723 216.712 383.077 216.635 386.35 216.712C390.526 216.813 392.473 217.168 390.61 217.548C389.341 217.802 384.488 219.526 382.371 220.489C377.547 222.645 372.75 226.321 370.323 229.668C365.752 236.007 364.37 243.106 364.934 257.102C365.075 260.727 365.273 263.998 365.357 264.379L365.499 265.063L366.825 264.556C371.424 262.781 378.054 262.857 382.089 264.708C382.964 265.114 383.246 265.342 382.964 265.443C382.738 265.519 381.384 265.925 379.945 266.356C374.443 267.979 370.436 270.083 366.712 273.253C363.552 275.966 361.125 278.958 356.498 285.879C355.256 287.756 354.043 289.53 353.789 289.809C353.394 290.291 353.366 290.291 353.14 289.556C353.027 289.125 352.914 286.919 352.943 284.612C352.943 280.58 352.971 280.327 353.874 277.893C354.41 276.498 355.313 274.546 355.905 273.557C357.344 271.224 360.138 268.283 362.197 266.99C363.185 266.356 363.749 265.824 363.664 265.596C363.608 265.393 362.846 263.846 361.972 262.173C358.501 255.403 356.893 247.594 357.57 240.773C358.106 235.297 360.25 229.871 363.213 226.397L364.229 225.18L362.705 222.011C359.743 215.849 356.977 208.649 355.454 203.248C354.071 198.228 353.027 192.067 353.563 192.067C353.733 192.067 354.833 192.903 356.046 193.892ZM519.387 293.79C520.713 298.81 521.051 301.98 521.08 308.952C521.08 315.899 520.826 318.384 519.528 324.444C518.089 331.163 515.606 337.654 512.022 344.069C510.16 347.339 505.843 353.45 503.473 356.112C497.886 362.324 490.579 368.029 483.496 371.629C481.606 372.593 481.465 372.745 481.634 373.328C482.057 374.723 481.832 381.796 481.324 383.876C479.349 391.989 473.677 397.288 464.987 399.241C461.968 399.925 455.93 400.153 452.205 399.748C446.308 399.088 439.536 397.314 434.317 395.057L431.636 393.891L435.304 394.043C449.271 394.651 454.067 394.575 459.005 393.663C471.307 391.406 475.54 384.332 473.649 369.195C473.113 364.936 471.251 356.416 469.332 349.393C468.542 346.604 467.95 344.297 468.006 344.271C468.175 344.119 472.718 350.559 474.072 352.816C477.091 357.963 479.546 363.795 480.703 368.739L481.324 371.35L483.722 368.992C491.03 361.817 498.479 352.081 503.417 343.257C510.894 329.794 516.198 311.817 517.891 294.044C518.089 291.914 518.315 290.57 518.456 290.798C518.568 291.001 518.992 292.345 519.387 293.79ZM511.345 378.145C510.894 382.582 509.793 388.237 508.495 392.877C500.962 419.829 483.779 438.617 463.096 442.597C459.57 443.256 452.826 443.51 449.102 443.079C443.769 442.496 436.997 440.594 432.652 438.49C431.805 438.084 431.072 437.805 431.015 437.856C430.959 437.907 430.705 439.098 430.479 440.518C428.984 449.646 424.046 456.517 416.823 459.534C414.961 460.32 411.744 461.182 411.518 460.954C411.434 460.903 412.252 460.016 413.324 459.002C416.936 455.579 419.249 451.877 420.745 447.085C422.663 440.924 423.143 435.143 422.889 420.64L422.72 409.991L423.736 411.386C427.883 417.04 430.931 426.674 430.931 434.179V436.411L433.131 436.816C441.286 438.312 445.97 438.693 451.331 438.287C474.552 436.461 490.917 420.691 506.972 384.636C508.383 381.416 509.991 377.74 510.527 376.447C511.063 375.128 511.543 374.266 511.599 374.52C511.656 374.773 511.543 376.396 511.345 378.145ZM352.519 382.456C353.987 382.735 357.513 383.47 360.391 384.078C376.277 387.527 386.406 389.124 396.874 389.834C402.348 390.24 413.07 390.037 417.669 389.479C425.541 388.49 433.809 386.335 439.819 383.647C443.712 381.923 443.797 381.999 440.919 384.763C436.094 389.352 427.686 393.51 419.221 395.513C410.531 397.542 398.088 397.973 389.454 396.528C386.04 395.944 386.04 395.97 388.099 397.897C390.046 399.697 392.473 402.841 393.912 405.427C395.717 408.673 397.044 413.946 396.649 416.304L396.451 417.42L393.122 413.921C388.466 409.053 383.613 404.362 376.136 397.567L369.759 391.736L365.301 389.961C362.874 388.997 359.15 387.298 357.034 386.183C353.225 384.205 349.359 381.974 349.726 381.974C349.811 381.974 351.08 382.202 352.519 382.456ZM503.445 432.176C504.715 435.042 506.266 438.388 506.944 439.656C511.148 447.592 515.747 450.584 524.607 451.116C527.993 451.319 528.105 451.446 526.13 452.638C523.252 454.387 520.967 455.046 517.383 455.199C513.631 455.351 511.486 454.869 508.524 453.246L506.69 452.257L506.464 453.17C504.15 462.323 496.617 470.056 486.657 473.479C481.183 475.381 474.101 475.939 468.542 474.925C467.103 474.671 465.974 474.367 466.059 474.265C466.144 474.164 466.99 473.784 467.95 473.429C480.675 468.738 485.556 466.456 490.889 462.729C494.275 460.371 497.04 457.962 499.89 454.97C503.163 451.547 504.376 450.001 504.009 449.798C503.417 449.468 500.652 444.879 499.946 443.054C497.943 437.754 497.858 429.971 499.777 425.457L500.087 424.697L500.623 425.838C500.934 426.472 502.203 429.311 503.445 432.176ZM429.125 481.77C428.476 488.92 424.102 495.716 417.895 499.138C408.951 504.108 397.467 502.485 389.313 495.107C387.986 493.915 386.971 492.901 387.027 492.85C387.083 492.8 388.381 492.977 389.905 493.281C399.809 495.158 403.815 495.462 408.245 494.651C414.227 493.56 419.842 489.757 426.642 482.176C427.94 480.756 429.068 479.59 429.153 479.59C429.238 479.59 429.238 480.579 429.125 481.77Z" fill="#98C1D9" fill-opacity="0.8"/>
<g clip-path="url(#clip0_669_453)">
<path fill-rule="evenodd" clip-rule="evenodd" d="M347.744 0.130682C345.656 0.308165 340.719 1.27164 337.559 2.10834C320.037 6.87504 307.763 17.5494 303.728 31.5706C302.317 36.4641 301.809 42.9042 302.458 48.2541C302.599 49.4965 303.051 52.2094 303.474 54.2378L304.236 57.9142L302.007 60.3229C297.577 65.0643 293.796 70.2366 290.721 75.764C289.056 78.8066 287.165 82.8126 286.77 84.2071C286.686 84.5875 286.516 84.8917 286.404 84.8917C286.319 84.8917 285.811 84.0043 285.275 82.914C282.397 77.0824 277.233 69.831 272.268 64.6332L270.49 62.7823L271.252 59.0552C272.239 54.2378 272.55 51.4741 272.55 47.6962C272.55 36.5148 268.43 26.9053 260.445 19.4003C254.238 13.5941 246.619 9.51195 237.167 6.95112C228.307 4.54241 223.116 4.36492 214.99 6.16511C209.431 7.40749 201.164 10.2726 194.138 13.3659C192.53 14.0758 190.922 14.6589 190.583 14.6589C189.511 14.6589 185.307 15.8506 182.993 16.7888C178.761 18.5382 172.638 22.5697 168.603 26.2715L166.938 27.8181L165.951 27.4378C162.057 25.9926 155.539 25.4348 150.658 26.17C141.431 27.5139 131.358 32.1537 122.16 39.2531C120.524 40.4955 117.984 42.3971 116.517 43.4873C113.103 45.9468 107.46 51.0177 105.598 53.2743C102.099 57.5593 99.9262 61.6414 98.9669 65.8503C98.2333 68.9689 98.3744 74.192 99.2491 76.8543L99.7851 78.553L99.0515 78.7051C89.0914 80.7335 82.8557 84.3085 78.2566 90.5965C73.2906 97.4423 71.6823 106.114 73.2342 117.498L73.4035 118.816L70.7512 119.932C62.3712 123.507 54.5836 128.426 48.4609 134.004C43.3256 138.644 40.1372 142.65 37.231 148.05C33.1397 155.733 31.3622 163.441 31.6725 172.138L31.8136 176.372L30.9671 177.082C29.3306 178.476 25.8319 182.406 23.885 185.043C15.7025 196.199 13.4734 210.094 17.8186 223.177C17.9135 223.465 18.0014 223.72 18.0798 223.946C18.371 224.789 18.5292 225.247 18.4143 225.621C18.2775 226.066 17.7542 226.392 16.6086 227.106L16.6062 227.107L16.6047 227.108C16.3535 227.265 16.0724 227.44 15.7589 227.639C13.1631 229.313 9.83361 232.406 8.05602 234.84C4.783 239.252 3.40043 243.08 3.17471 248.582C2.9772 252.943 3.48508 256.011 5.09337 260.448L6.19378 263.465L5.09337 266.533C-3.62527 290.671 -1.11407 313.262 12.3448 331.289L14.6585 334.408L13.9531 336.614C12.5987 340.924 12.2602 343.13 12.2884 347.567C12.2884 352.156 12.5705 353.627 14.0942 357.177C16.3232 362.349 21.1763 367.014 26.9887 369.524L27.3782 369.695L27.3791 369.696C28.4179 370.151 29.2491 370.516 29.2742 370.539C29.3306 370.564 28.7381 372.339 27.9763 374.494C24.5058 384.027 23.0385 391.887 23.0385 400.939C23.095 416.456 28.6817 430.579 39.7704 443.155C44.2003 448.2 53.06 455.604 58.6749 458.951L59.9446 459.711L60.8475 463.794C64.6849 481.415 76.0276 494.295 93.6623 501.04C102.832 504.539 114.655 506.745 124.558 506.821H127.098L129.073 509.001C131.923 512.145 139.005 518.509 142.56 521.095C155.963 530.933 170.494 535.548 184.601 534.483C191.768 533.925 198.427 532.302 205.03 529.488C211.858 526.572 220.266 521.298 224.978 516.988L226.361 515.72L228.928 516.937C233.471 519.092 237.732 520.081 242.5 520.081C247.551 520.081 250.598 519.321 256.608 516.608C261.235 514.528 263.154 513.413 265.609 511.359C276.528 502.155 279.519 484.28 273.678 462.982L272.521 458.875L273.227 457.784C274.44 455.908 276.472 451.142 277.318 448.175C279.491 440.594 279.152 432.176 276.415 424.646L275.512 422.136L277.092 419.981C282.623 412.475 285.585 403.804 286.432 392.876C287.25 381.898 284.767 367.395 279.858 354.641L279.011 352.461L280.45 348.708C282.34 343.739 283.638 339.378 284.654 334.763C286.178 327.917 286.488 324.976 286.488 317.775C286.488 310.676 286.15 307.532 284.823 302.486L284.118 299.9L285.077 298.683C286.262 297.187 286.996 295.869 287.645 294.069C287.927 293.308 288.209 292.573 288.266 292.471C288.35 292.37 288.887 292.902 289.507 293.688L290.608 295.083L289.902 297.694C286.404 310.828 287.984 327.258 294.332 343.992L295.715 347.643L294.868 349.824C291.341 359.002 289.056 369.093 288.322 378.627C287.25 392.902 290.89 406.644 298.198 415.949L299.242 417.268L298.339 419.803C296.9 423.682 296.223 427.308 296.053 431.745C295.771 438.971 297.379 445.462 301.076 452.13L302.176 454.108L301.047 458.216C297.69 470.437 297.238 482.708 299.806 491.658C301.922 499.062 306.578 505.401 312.559 509.052C314.732 510.37 321.645 513.438 323.902 514.097C331.069 516.151 338.095 515.568 345.374 512.297L348.337 510.953L350.876 513.083C355.927 517.394 363.432 521.983 369.696 524.67C385.779 531.542 402.511 531.491 418.114 524.518C422.77 522.439 427.623 519.625 431.968 516.43C435.608 513.768 442.662 507.48 445.653 504.209L447.628 502.054L452.001 501.902C474.405 501.09 492.858 493.459 503.692 480.553C508.799 474.443 512.693 465.974 514.217 457.607L514.696 454.945L516.023 454.159C521.638 450.787 530.497 443.408 534.955 438.337C542.263 430.046 547.652 420.082 550.023 410.447C552.252 401.294 552.28 390.721 550.051 380.655C549.232 377.055 547.455 371.071 546.213 367.978C545.762 366.761 545.395 365.747 545.452 365.721L545.453 365.721L545.454 365.72C545.535 365.684 546.653 365.182 547.963 364.606C552.336 362.653 556.427 359.281 558.91 355.554C563.086 349.342 563.707 340.595 560.632 331.34L560.067 329.616L562.494 326.345C568.278 318.637 572.398 308.825 574.062 298.835C574.655 295.184 574.88 286.564 574.485 282.482C573.836 275.788 572.285 269.094 569.802 262.147L568.532 258.597L569.632 255.605C571.297 251.067 571.749 248.379 571.551 243.917C571.382 239.708 570.676 236.894 568.983 233.598C566.867 229.49 562.832 225.23 558.403 222.441C557.133 221.655 556.117 220.945 556.117 220.895C556.117 220.819 556.484 219.652 556.935 218.283C559.701 209.916 559.757 200.535 557.105 192.269C554.96 185.652 550.474 178.73 544.915 173.38L542.912 171.453L543.053 167.295C543.674 150.434 535.83 135.5 520.565 124.471C515.74 120.972 509.9 117.675 504.031 115.14L501.322 113.948L501.492 112.858C503.156 101.93 501.407 92.5996 496.469 85.7791C492.124 79.7954 485.522 75.8654 476.944 74.1159L474.941 73.7102L475.477 72.0115C476.295 69.5267 476.464 64.405 475.872 61.4892C474.292 53.9589 468.62 46.4031 459.535 39.7095C457.983 38.5432 455.613 36.743 454.287 35.7034C444.947 28.3505 436.201 23.9388 426.889 21.809C424.265 21.2005 423.391 21.1244 419.13 21.1498C414.249 21.1498 411.794 21.5048 408.803 22.6204L407.844 22.9753L405.022 20.5159C398.504 14.8111 391.563 11.16 384.904 9.943C383.607 9.68945 381.321 8.87808 378.556 7.68641C368.878 3.50287 359.595 0.840601 352.71 0.206732C351.102 0.0799577 349.578 -0.021443 349.324 0.00391182C349.174 0.0189666 348.864 0.0429591 348.507 0.0705832L348.506 0.0706288C348.262 0.0895157 347.996 0.110098 347.744 0.130682ZM353.811 8.19349C358.749 8.85271 366.564 11.2107 373.139 13.9998L375.114 14.8111L373.082 14.9886C369.442 15.2928 364.674 16.9409 360.921 19.1721L359.369 20.1102L366.254 20.2877C371.869 20.4145 373.534 20.5413 375.283 20.947C384.284 23.1021 386.88 27.7674 389.08 45.5664C389.391 48.1273 389.701 50.2824 389.758 50.3585C390.011 50.5613 391.845 46.9356 392.692 44.5776C395.26 37.3515 394.977 29.5422 391.987 23.8374C391.592 23.0768 390.66 21.7329 389.899 20.8455C388.572 19.2735 388.572 19.2228 389.391 19.6285C393.651 21.6062 399.859 26.3475 404.035 30.8353C405.982 32.9397 406.264 33.1173 407.421 33.2694C411.06 33.8018 416.788 36.4641 428.469 43.107C438.825 49.0147 445.032 52.2094 445.427 51.8291C445.681 51.6009 443.396 48.3808 441.449 46.2003C436.483 40.6476 428.864 35.5513 422.093 33.1933C417.183 31.5199 411.738 31.0635 408.436 32.0777L406.8 32.6101L407.59 32.027C408.888 31.0889 412.33 29.6436 414.249 29.238C416.591 28.7562 421.557 28.7562 424.294 29.2633C431.686 30.6325 440.179 34.9681 449.18 42.0168C450.534 43.0817 452.932 44.9072 454.541 46.0989C459.281 49.6232 462.921 53.4771 465.178 57.4071C469.664 65.1657 467.943 73.3046 460.466 79.6686L458.434 81.3927L460.776 81.1646C464.783 80.8096 471.019 80.9871 474.151 81.5449C484.393 83.3704 490.6 88.7963 492.604 97.7212C493.789 102.944 493.619 108.725 492.18 114.937C491.785 116.611 491.447 118.132 491.419 118.309C491.39 118.487 492.97 119.222 495.171 120.084C505.978 124.242 514.414 129.237 520.876 135.272C525.39 139.531 528.691 143.994 531.146 149.242L532.106 151.347L532.472 163.517C532.811 176.296 532.642 181.848 531.682 188.365C531.315 190.976 530.102 196.402 529.651 197.416C529.538 197.72 529.679 197.695 530.328 197.289C533.883 194.982 537.862 188.872 539.385 183.395C539.808 181.848 540.175 180.555 540.232 180.505C540.514 180.15 544.52 185.525 546.101 188.339C550.389 195.996 551.461 204.414 549.345 213.263C548.64 216.179 547.286 219.703 545.903 222.163C545.282 223.253 544.746 224.368 544.69 224.597C544.549 225.256 541.671 229.465 539.611 232.076C536.874 235.524 533.798 238.795 529.905 242.396C526.011 246.021 526.011 246.072 529.877 245.109C537.974 243.106 545.959 237.401 550.897 230.099L552.223 228.146L553.07 228.577C554.509 229.338 558.064 232.457 559.193 233.952C561.93 237.578 562.917 240.469 562.945 244.88C562.945 250.611 561.901 253.4 555.75 263.922C553.098 268.46 550.079 274.267 547.06 280.732C546.301 282.359 545.437 284.186 544.744 285.649C544.304 286.58 543.933 287.364 543.702 287.857C542.658 290.012 541.445 292.826 541.445 293.004C541.445 293.207 543.589 291.939 545.677 290.519C551.631 286.437 557.387 278.881 561.506 269.753L562.55 267.37L562.861 268.359C565.259 276.422 565.823 280.276 565.823 288.617C565.852 296.706 565.287 300.636 563.115 307.126C561.027 313.414 556.089 321.832 552.167 325.838C549.769 328.272 532.952 340.721 532.049 340.721C531.908 340.721 531.88 340.519 531.964 340.265C532.331 339.149 532.444 331.644 532.162 328.044C531.682 322.263 530.243 314.86 529.566 314.86C529.425 314.86 529.312 314.936 529.312 315.012C529.312 315.088 528.889 317.065 528.353 319.373C527.817 321.705 526.406 328.323 525.221 334.078C520.34 358.039 517.292 367.521 511.649 376.345C510.831 377.587 510.21 378.678 510.267 378.728C510.323 378.754 511.508 378.094 512.919 377.232C517.433 374.469 521.694 369.753 524.911 363.997L526.293 361.538L527.281 362.324C528.663 363.414 531.795 364.682 533.996 365.087C534.066 365.099 534.133 365.111 534.198 365.122C534.792 365.223 535.2 365.293 535.536 365.487C536.276 365.916 536.664 366.95 537.906 370.261C537.99 370.486 538.079 370.723 538.172 370.97C543.11 384.078 544.295 396.679 541.699 408.165C538.341 423.074 527.93 436.968 512.778 446.78C511.085 447.871 510.718 447.896 507.755 447.212C503.467 446.223 500.419 444.22 497.908 440.695C495.877 437.856 495.03 436.208 491.616 428.576L491.483 428.277L491.276 427.812L491.026 427.249C489.405 423.601 488.727 422.077 488.281 422.141C487.961 422.188 487.759 423.056 487.414 424.547C487.361 424.776 487.304 425.021 487.243 425.28C486.199 429.717 486.622 435.523 488.258 439.884C488.964 441.76 491.108 445.361 492.096 446.324C492.604 446.831 492.604 446.882 491.447 448.226C489.246 450.863 486.368 453.778 483.857 455.934C477.057 461.74 470.454 465.213 457.447 469.803C455.839 470.36 454.484 470.918 454.4 471.045C454.061 471.552 459.309 472.313 463.175 472.313C477.706 472.313 490.911 463.439 494.381 451.37L495.058 449.088L496.582 449.975C498.614 451.142 501.435 451.978 504.087 452.181L506.26 452.359L506.063 453.854C505.244 460.928 501.689 469.422 497.203 475.076C488.287 486.334 472.204 493.23 453.13 494.016C449.462 494.169 449.236 494.143 447.233 493.484C442.944 492.064 440.574 490.644 436.708 487.069L434.254 484.813L435.213 482.734C437.64 477.561 438.655 470.842 437.893 464.96L437.668 463.058L438.966 461.41C440.8 459.052 446.132 454.362 448.728 452.79C451.465 451.142 454.908 449.696 457.362 449.113L457.364 449.113L457.364 449.113L457.367 449.112C459.282 448.675 460.196 448.467 460.184 448.364C460.173 448.269 459.392 448.263 457.898 448.251C451.493 448.2 444.524 450.254 438.119 454.032C436.934 454.742 435.918 455.325 435.834 455.325C435.777 455.325 435.354 454.438 434.931 453.373C433.887 450.71 431.63 446.628 430.219 444.93L429.09 443.535L429.259 448.479C429.711 461.486 429.767 471.806 429.457 475.102C428.78 482.1 427.341 486.993 424.491 492.089C423.927 493.104 423.503 493.966 423.56 494.016C423.842 494.245 428.018 491.735 429.288 490.594C430.811 489.199 431.122 489.047 431.122 489.782C431.122 490.036 431.63 491.151 432.25 492.267C433.548 494.6 435.805 496.704 438.119 497.769L439.615 498.454L438.966 499.265C437.837 500.685 429.937 507.809 427.172 509.889C419.497 515.669 410.835 519.65 402.342 521.273C398.307 522.059 390.322 522.11 386.118 521.4C377.512 519.954 368.398 515.974 360.329 510.167C356.999 507.759 351.92 503.372 351.384 502.434C351.158 502.054 350.227 498.327 349.324 494.194C347.49 485.928 346.644 482.734 345.374 479.361L345.335 479.259C344.636 477.413 344.33 476.608 344.02 476.606C343.779 476.604 343.535 477.084 343.102 477.936L343.061 478.018C342.581 478.981 341.847 480.883 341.452 482.201C340.775 484.407 340.719 485.016 340.719 489.554C340.747 494.093 340.803 494.701 341.481 497.034C341.904 498.428 342.75 500.533 343.371 501.699C344.246 503.347 344.443 503.879 344.161 504.057C342.609 504.944 338.659 506.567 337.164 506.947C334.652 507.556 329.715 507.556 327.429 506.947C325.567 506.466 319.106 503.626 317.3 502.485C315.522 501.395 312.531 498.428 311.233 496.476C309.286 493.509 307.932 489.732 307.255 485.269C306.775 482.176 306.86 474.798 307.396 470.791C307.847 467.445 309.117 461.005 309.428 460.573C309.512 460.447 310.105 460.802 310.754 461.36C315.748 465.644 323.084 468.636 329.404 468.915H329.405C330.938 468.987 331.747 469.025 331.792 468.858C331.842 468.671 330.942 468.228 329.037 467.293C321.052 463.363 314.478 456.796 310.81 449.037C308.186 443.535 306.126 433.368 306.126 425.964C306.126 423.505 306.521 421.35 306.973 421.35C307.057 421.35 307.735 422.11 308.468 423.048C310.274 425.432 314.789 429.336 317.949 431.238C322.971 434.255 329.178 436.36 335.471 437.196C341.847 438.058 350.115 437.399 356.632 435.548L359.313 434.788L360.413 436.005C365.266 441.228 370.966 443.687 375.763 442.648C377.202 442.343 379.769 441.076 379.769 440.67C379.769 440.543 379.12 440.366 378.358 440.29C377.568 440.214 376.158 439.757 375.198 439.301C371.925 437.754 369.132 434.661 363.263 426.167C359.623 420.893 356.745 417.191 354.883 415.417L353.557 414.124L353.529 417.242C353.529 421.857 354.573 426.091 356.773 430.401L357.733 432.252H354.714C344.866 432.252 334.342 430.325 326.865 427.181C317.61 423.277 310.782 417.597 303.418 407.785C300.878 404.387 299.975 402.536 298.79 398.404C297.351 393.383 296.984 390.214 296.984 383.317C297.013 373.86 298.48 365.645 301.979 355.224L302.966 352.359L307.311 348.505C312.164 344.195 315.353 340.874 317.667 337.679C319.359 335.372 320.714 332.963 320.46 332.735C320.178 332.481 316.369 333.318 314.252 334.104C311.064 335.321 308.186 337.146 305.364 339.809C305.123 340.036 304.903 340.247 304.703 340.438C303.738 341.363 303.227 341.853 302.842 341.768C302.409 341.672 302.138 340.843 301.561 339.078C301.457 338.761 301.343 338.413 301.217 338.034C297.295 326.117 295.94 315.037 297.238 305.123C297.69 301.7 298.706 297.365 299.044 297.365C299.157 297.365 300.06 297.897 301.076 298.531C303.587 300.154 309.54 302.715 313.603 303.932C326.498 307.735 342.863 308.445 356.04 305.707C357.338 305.428 358.579 305.123 358.833 304.997C359.567 304.616 350.34 302.816 337.446 300.788C316.651 297.517 310.697 296.401 303.672 294.398C301.922 293.917 300.483 293.409 300.483 293.257C300.483 293.131 299.665 292.294 298.677 291.457C292.329 285.904 293.57 278.044 302.261 268.765C304.179 266.711 305.449 265.722 312.616 260.474C321.222 254.186 326.724 249.901 329.122 247.669L330.533 246.351L328.417 246.478C323.451 246.833 316.933 248.962 311.713 251.904C308.496 253.729 303.982 257.101 302.091 259.13C301.471 259.789 300.85 260.271 300.709 260.169C300.088 259.84 296.759 253.197 295.574 249.951C291.482 238.719 291.539 225.611 295.799 212.756C297.408 207.862 298.141 206.544 301.894 201.777C306.634 195.743 311.572 189.1 314.027 185.449C316.34 182.001 319.218 176.93 318.88 176.93C318.4 176.93 313.406 179.719 311.177 181.265C306.437 184.485 300.991 189.683 297.746 194.095C296.872 195.261 296.053 196.123 295.969 196.022C295.686 195.743 294.643 191.737 294.106 188.846C293.401 185.145 293.26 175.231 293.824 170.388C294.53 164.455 296.984 153.476 298.028 151.702C298.395 151.042 302.571 146.073 306.408 141.686C314.111 132.914 320.996 124.014 320.46 123.558C320.262 123.38 315.748 125.13 313.66 126.22C308.75 128.73 302.994 133.345 299.439 137.579L297.69 139.658L297.21 138.34C296.505 136.362 296.364 131.621 296.928 129.415C297.464 127.412 299.242 124.217 300.624 122.721C301.16 122.163 301.612 121.605 301.64 121.479C301.668 121.098 307.34 116.889 310.641 114.76C326.724 104.516 347.632 98.989 376.665 97.3409C378.148 97.2469 380.009 97.1431 381.613 97.0536C382.604 96.9984 383.496 96.9486 384.143 96.9099L387.246 96.7324L384.312 95.8703C371.079 92.0671 353.105 91.8389 338.151 95.2872C326.329 98.0001 316.256 102.767 308.242 109.384C304.631 112.376 303.559 113.441 300.906 116.687L299.27 118.69L298.649 118.005C297.746 116.991 296.082 114.253 295.094 112.148C289.169 99.7243 293.091 84.0804 305.985 68.5379C310.077 63.5937 313.519 60.2469 316.284 58.4213C317.61 57.5593 322.04 54.7449 326.159 52.184C334.991 46.682 341.001 42.8028 343.964 40.673C346.446 38.8981 346.334 38.746 342.807 39.2531C333.157 40.5969 321.786 45.1608 313.942 50.8402C312.87 51.6009 311.967 52.184 311.882 52.108C311.798 52.0573 311.544 50.6374 311.318 48.9893C310.669 44.6029 310.923 38.0361 311.854 34.4103C314.478 24.4206 321.589 16.8648 332.959 12.022C336.712 10.4247 340.578 9.25838 344.923 8.44703C348.619 7.73709 350.256 7.68639 353.811 8.19349ZM229.549 13.2391C240.468 15.1914 250.429 20.2117 256.156 26.6771C259.288 30.2268 261.658 34.6639 262.843 39.2278C263.803 42.8788 264.057 49.4711 263.408 53.8067C263.182 55.4548 262.9 56.8747 262.843 56.9508C262.759 57.0015 262.053 56.5958 261.292 56.0126C256.975 52.7672 249.046 48.7358 243.121 46.7581C238.522 45.2115 231.947 43.817 229.295 43.817H228.477L229.718 44.7297C232.06 46.5046 237.195 49.8768 244.757 54.6181C260.304 64.329 260.389 64.4051 263.21 67.2448C268.769 72.8228 272.719 78.0206 276.246 84.2578C278.898 88.9992 279.829 91.205 281.043 95.4646C283.187 103.071 282.679 110.576 279.604 117.092C278.644 119.095 276.923 121.91 276.02 122.899L275.484 123.507L273.029 120.566C268.289 114.912 260.332 109.055 252.375 105.404C237.167 98.4058 217.473 95.9717 199.189 98.8622C195.577 99.42 191.401 100.333 189.031 101.068L187.479 101.55L190.16 101.727C190.727 101.757 191.569 101.805 192.536 101.861L192.538 101.861C194.072 101.949 195.922 102.055 197.496 102.133C227.066 103.781 247.917 109.283 264.226 119.704C266.116 120.896 268.458 122.518 269.474 123.355C270.462 124.166 271.703 125.13 272.211 125.51C272.691 125.89 273.114 126.271 273.114 126.347C273.114 126.448 273.565 126.981 274.102 127.538C275.484 129.009 277.262 132.229 277.798 134.232C278.39 136.489 278.221 141.484 277.487 143.284L277.008 144.475L275.287 142.396C271.647 138.01 265.834 133.446 260.558 130.809C258.019 129.541 254.209 128.096 254.209 128.426C254.209 128.73 255.959 131.392 257.68 133.7C259.429 136.032 264.452 142.041 272.014 150.814C274.327 153.527 276.415 156.037 276.641 156.392C277.149 157.28 278.898 163.669 279.745 167.853C281.833 178.273 281.833 189.734 279.716 197.847C279.293 199.369 278.898 200.712 278.785 200.839C278.672 200.941 277.826 200.028 276.895 198.811C272.183 192.548 265.355 186.666 258.639 183.116C257.229 182.356 255.959 181.747 255.846 181.747C255.479 181.747 258.273 186.564 260.784 190.342C263.38 194.222 267.33 199.546 272.663 206.341C276.585 211.361 277.318 212.654 278.898 217.497C281.099 224.166 281.861 228.552 282.058 235.372C282.369 245.311 280.704 252.816 276.443 260.854C276.212 261.293 276.005 261.691 275.819 262.05C274.869 263.878 274.445 264.694 273.93 264.757C273.515 264.807 273.04 264.369 272.183 263.578L272.177 263.572L272.174 263.569C271.965 263.377 271.735 263.164 271.477 262.933C268.402 260.144 265.552 258.09 262.11 256.239C257.2 253.577 250.993 251.625 246.309 251.295L244.193 251.168L245.886 252.74C248.002 254.693 253.617 259.079 260.389 264.023C269.446 270.641 270.462 271.427 272.465 273.582C275.089 276.371 276.556 278.399 278.052 281.214C281.268 287.248 280.591 292.268 276.048 296.275C275.061 297.162 274.243 297.973 274.243 298.1C274.243 298.227 272.775 298.734 270.998 299.241C265.609 300.788 257.68 302.385 247.861 303.932C226.868 307.279 224.188 307.735 218.545 308.927C215.074 309.687 215.074 309.763 218.742 310.549C229.21 312.78 242.585 312.73 254.492 310.397C261.376 309.053 269.305 306.112 273.65 303.349C274.666 302.715 275.569 302.182 275.682 302.182C275.794 302.182 276.161 303.196 276.472 304.413C278.39 311.716 278.39 322.897 276.472 331.974C275.569 336.335 273.424 343.713 272.239 346.477C272.014 347.009 271.788 346.857 269.107 344.423C265.891 341.558 263.887 340.265 260.643 338.997C258.526 338.186 254.576 337.273 254.266 337.552C254.012 337.78 255.366 340.189 257.059 342.496C259.345 345.64 262.505 348.936 267.471 353.399L271.872 357.354L273.029 361.005C276.528 371.908 277.713 378.754 277.741 388.262C277.77 395.234 277.403 398.049 275.936 403.246C274.75 407.354 273.848 409.205 271.308 412.602C258.893 429.362 245.152 436.106 221.62 437.044C219.137 437.146 217.078 437.196 217.021 437.171C216.965 437.146 217.247 436.537 217.642 435.853C219.927 431.821 221.197 426.852 221.197 422.11L221.169 418.941L219.815 420.259C218.009 421.984 215.3 425.482 211.463 430.984C204.07 441.659 200.882 444.625 196.339 445.107C195.493 445.183 194.985 445.361 195.041 445.538C195.211 446.02 196.96 446.958 198.427 447.338C203.421 448.682 209.601 446.096 214.454 440.67L215.413 439.58L217.529 440.239C223.708 442.141 232.766 442.876 239.255 442.014C245.604 441.177 251.727 439.098 256.749 436.055C259.937 434.154 264.452 430.249 266.258 427.866C266.991 426.928 267.668 426.167 267.753 426.167C268.204 426.167 268.599 428.322 268.599 430.756C268.599 438.236 266.568 448.302 263.916 453.854C260.135 461.816 254.661 467.293 245.547 472.237L242.5 473.885L245.322 473.733C251.783 473.403 258.95 470.513 263.972 466.177C264.621 465.619 265.214 465.264 265.298 465.391C265.609 465.822 266.878 472.262 267.33 475.609C267.866 479.615 267.951 486.968 267.471 490.061C266.512 496.527 264.029 501.674 260.219 505.122C258.16 506.998 256.946 507.733 252.968 509.584C248.312 511.739 246.309 512.247 242.5 512.221C238.832 512.221 236.772 511.765 233.471 510.32C233.235 510.213 233.015 510.114 232.81 510.022L232.81 510.022L232.809 510.022L232.809 510.022L232.808 510.021C231.31 509.349 230.642 509.049 230.517 508.598C230.416 508.235 230.668 507.774 231.124 506.941C231.196 506.809 231.273 506.668 231.355 506.516C231.976 505.35 232.822 503.246 233.245 501.851C233.951 499.493 234.007 498.961 234.007 494.371C234.007 489.808 233.922 489.25 233.245 486.942C232.822 485.573 232.088 483.697 231.609 482.759L231.581 482.704C231.171 481.882 230.939 481.417 230.707 481.418C230.406 481.418 230.105 482.206 229.413 484.019L229.351 484.179C228.138 487.374 227.038 491.481 225.712 497.668C225.063 500.659 224.301 504.108 223.99 505.325L223.426 507.531L220.125 510.396C213.974 515.745 208.726 519.118 201.869 522.135C197.101 524.239 193.743 525.304 189.201 526.141C184.714 526.952 176.673 526.927 172.384 526.09C162.537 524.189 153.282 519.599 144.309 512.12C141.657 509.914 135.873 504.463 135.393 503.702C135.168 503.322 135.365 503.144 136.578 502.586C139.456 501.293 142.137 498.479 143.209 495.639C143.491 494.879 143.773 494.194 143.83 494.143C143.858 494.067 144.62 494.65 145.523 495.436C146.962 496.729 150.884 499.062 151.166 498.834C151.222 498.783 150.799 497.921 150.235 496.907C147.385 491.811 145.946 486.917 145.269 479.919C144.958 476.623 145.015 467.14 145.466 453.423L145.636 448.352L144.62 449.595C143.265 451.268 140.754 455.731 139.795 458.19C139.372 459.255 138.948 460.142 138.892 460.142C138.807 460.142 137.792 459.559 136.607 458.849C130.173 455.046 122.95 452.942 116.771 453.094L113.837 453.17L116.461 453.728C119.593 454.412 122.922 455.756 125.997 457.607C128.593 459.179 133.926 463.87 135.76 466.228L137.058 467.876L136.832 469.777C136.07 475.634 137.086 482.455 139.513 487.576L140.529 489.681L137.312 492.495C133.785 495.614 131.471 496.983 127.86 498.175C125.095 499.087 122.978 499.163 117.222 498.555C102.381 497.008 90.6433 492.419 82.235 484.863C78.7645 481.745 76.1404 478.474 73.9114 474.468C71.3155 469.777 69.2276 463.515 68.6633 458.672L68.4658 457.176L70.6102 457.024C73.2906 456.821 76.0558 456.01 78.0873 454.818L79.6674 453.905L80.3446 456.187C83.8433 468.357 96.9636 477.13 111.664 477.13C115.642 477.13 120.862 476.37 120.298 475.862C120.157 475.736 118.323 475.026 116.235 474.265C106.924 470.868 102.663 468.915 97.4715 465.67C93.4931 463.185 87.8499 458.292 84.3794 454.336L82.0657 451.725L82.6018 451.167C83.6176 450.178 85.7337 446.603 86.4674 444.701C88.1039 440.34 88.5271 434.534 87.4831 430.097C87.422 429.838 87.3653 429.594 87.312 429.364C86.9663 427.873 86.7652 427.005 86.4445 426.959C85.9984 426.894 85.3208 428.419 83.7003 432.066C83.516 432.481 83.3194 432.923 83.1097 433.393C81.3603 437.298 79.6392 441 79.3006 441.633C75.5479 448.226 72.2184 450.989 66.66 452.13C65.5313 452.359 64.3463 452.536 63.9795 452.536C62.5687 452.511 54.5554 446.527 49.9845 442.065C38.8957 431.238 33.0551 419.194 31.8418 404.844C31.1364 396.172 32.8294 385.726 36.5256 375.838L36.7271 375.304C38.0612 371.766 38.4581 370.714 39.2086 370.295C39.5265 370.117 39.9078 370.054 40.4507 369.963C40.5133 369.952 40.578 369.942 40.6451 369.93C42.7613 369.575 46.0343 368.231 47.4169 367.141L48.4326 366.355L49.8152 368.815C53.0318 374.595 57.4334 379.413 61.8633 382.1C63.2459 382.937 64.4027 383.571 64.4591 383.52C64.5156 383.47 63.8948 382.405 63.0766 381.162C57.6592 372.694 54.3297 362.577 50.0974 341.736C47.3604 328.348 45.3289 319.398 45.075 319.626C44.68 319.981 43.4949 325.154 43.0434 328.424C42.4509 332.811 42.2252 338.82 42.5356 342.496C42.6766 344.246 42.7895 345.691 42.7613 345.716C42.6202 345.894 34.0991 339.809 28.3149 335.346C23.0103 331.289 22.051 330.377 19.4269 326.802C12.3448 317.167 8.73319 306.011 8.73319 293.663C8.73319 286.589 9.57966 281.011 11.8651 273.176L12.1755 272.188L13.2759 274.672C16.8311 282.583 21.9381 289.708 27.1016 293.891C28.7945 295.286 32.9704 297.973 33.168 297.796C33.2808 297.694 32.4061 295.615 31.0236 292.674C30.7939 292.183 30.4244 291.402 29.9856 290.475L29.9831 290.47C29.2902 289.006 28.4253 287.178 27.6659 285.549C24.6468 279.084 21.6278 273.278 18.9755 268.739C12.8245 258.217 11.7805 255.453 11.8087 249.698C11.8087 245.185 12.8527 242.218 15.6742 238.643C16.944 236.995 20.217 234.155 21.656 233.395L22.5024 232.964L23.4053 234.358C27.9763 241.534 36.4128 247.72 44.3978 249.825C48.7712 250.94 48.7712 250.889 44.821 247.213C40.9273 243.613 37.8518 240.342 35.1148 236.894C33.0551 234.282 30.1771 230.073 30.036 229.414C29.9796 229.186 29.4435 228.07 28.8227 226.98C27.4402 224.521 26.0858 220.996 25.3804 218.08C23.2643 209.232 24.3365 200.814 28.6252 193.157C30.2053 190.342 34.2119 184.967 34.4941 185.322C34.5505 185.373 34.9173 186.666 35.3406 188.212C36.8642 193.689 40.8426 199.8 44.3978 202.107C45.0468 202.513 45.1878 202.538 45.075 202.234C44.6235 201.219 43.4102 195.794 43.0434 193.182C42.0841 186.64 41.9148 181.113 42.2816 168.309L42.6202 156.139L43.6078 154.06C47.8119 145.059 54.894 137.782 65.5878 131.494C69.1994 129.364 76.7329 125.865 80.6831 124.471C82.0093 124.014 83.1661 123.558 83.279 123.456C83.3918 123.38 83.2508 122.442 82.9404 121.403C81.3885 116.027 80.9371 107.838 81.8964 103.375C83.3354 96.8085 86.157 92.701 91.4051 89.5823C96.3993 86.6158 103.651 85.3227 112.031 85.9059C113.178 85.9755 114.231 86.0452 114.966 86.0938L114.968 86.0939L114.969 86.094L114.971 86.0941L114.975 86.0944L114.976 86.0944L114.977 86.0945C115.574 86.134 115.959 86.1595 116.009 86.1595C116.094 86.1595 115.276 85.3988 114.203 84.4353C109.407 80.3025 107.093 75.8147 107.121 70.693C107.149 67.7265 107.686 65.7235 109.322 62.6809C111.551 58.5481 115.812 54.0349 121.173 50.1556C122.414 49.2682 124.587 47.6202 125.969 46.5046C133.503 40.5462 142.024 36.0584 148.88 34.385C151.928 33.6497 157.684 33.4722 160.364 34.03C162.255 34.4357 165.923 35.9823 167.305 36.9712L168.011 37.4783L166.967 37.0979C161.267 35.0188 151.589 37.3008 143.04 42.7521C139.964 44.7297 134.434 49.5218 132.431 52.0066C130.625 54.1871 129.101 56.469 129.299 56.6465C129.666 57.0015 136.832 53.3504 145.438 48.4315C157.768 41.3575 162.706 39.0249 166.967 38.2136C168.152 38.0107 168.688 37.7318 169.252 37.1487C174.218 31.7481 180.736 26.5757 185.194 24.4966L186.294 23.9895L184.996 25.4854C183.36 27.3871 182.175 29.5676 181.244 32.3312C180.651 34.1314 180.482 35.2724 180.369 38.2389C180.2 42.4478 180.595 45.1608 182.006 49.2683C182.824 51.6262 184.686 55.4041 184.94 55.1759C185.025 55.1252 185.391 52.5137 185.786 49.3697C186.633 42.676 187.084 40.1912 188.016 37.0726C189.652 31.672 191.938 28.7055 195.944 26.9307C198.963 25.5869 201.249 25.2573 208.754 25.0798L215.357 24.9276L213.805 23.9895C209.742 21.5808 204.917 20.0088 200.459 19.6792C199.753 19.6031 200.148 19.4003 202.716 18.3608C211.886 14.7097 219.42 12.7574 224.583 12.656C225.429 12.656 227.687 12.9095 229.549 13.2391ZM289.789 120.033L290.918 121.758L290.072 123.456C287.25 129.11 287.052 136.007 289.507 142.016C289.987 143.157 290.495 144.45 290.664 144.881C290.918 145.54 290.777 146.2 289.789 149.191C289.14 151.118 288.209 154.338 287.701 156.341L286.77 159.967L285.867 156.975C285.36 155.327 284.682 153.172 284.344 152.158L283.723 150.358L284.654 148.253C286.432 144.197 286.742 142.726 286.77 138.264C286.799 133.776 286.347 131.671 284.654 128.248L283.779 126.524L284.485 125.535C285.416 124.192 287.306 120.794 287.927 119.298C288.209 118.639 288.492 118.157 288.548 118.208C288.633 118.284 289.197 119.095 289.789 120.033ZM288.858 206.823C288.266 208.293 287.532 210.347 287.194 211.387L286.573 213.263L285.698 211.133L284.795 209.003L285.585 207.127C286.291 205.479 288.04 200.484 288.068 200.028C288.096 199.952 288.492 200.839 288.999 202.005L289.931 204.135L288.858 206.823ZM290.495 259.535C291.313 261.107 292.442 263.06 293.006 263.871L293.994 265.367L292.16 267.801C289.846 270.894 288.576 273.151 287.391 276.32L286.46 278.805L285.642 277.258C285.19 276.396 283.921 274.469 282.792 272.948L280.76 270.21L281.607 268.917C283.892 265.468 286.94 259.206 287.843 256.189L288.209 254.997L288.604 255.834C288.83 256.29 289.677 257.963 290.495 259.535ZM553.747 341.482C553.945 345.59 553.521 347.795 551.998 350.584C550.728 352.866 547.85 355.681 545.367 357.025L543.561 358.013L535.858 357.887C531.626 357.811 528.099 357.735 528.042 357.684C527.986 357.608 528.381 356.289 528.917 354.692C529.933 351.7 531.118 346.731 531.457 344.195L531.654 342.699L532.529 342.851C533.883 343.079 538.511 342.344 541.304 341.482C544.605 340.443 547.624 338.997 550.53 337.045L552.872 335.473L553.239 336.766C553.437 337.476 553.662 339.606 553.747 341.482ZM29.0203 344.601C30.3464 345.235 32.4626 346.046 33.7041 346.426C36.3563 347.187 40.9555 347.871 42.197 347.669L43.0717 347.517L43.2692 349.012C43.6078 351.548 44.7928 356.517 45.8086 359.509C46.3447 361.107 46.7397 362.451 46.655 362.501C46.5986 362.577 43.0717 362.653 38.8393 362.729L31.1646 362.831L29.4999 361.918C25.0701 359.484 22.3049 356.01 21.261 351.573C20.7531 349.469 20.8659 344.119 21.4302 341.685L21.7688 340.265L24.1954 341.862C25.4933 342.75 27.6659 343.967 29.0203 344.601ZM412.358 53.0208C407.11 64.329 402.821 68.4365 395.203 69.5267C392.438 69.9324 386.174 69.6535 380.813 68.9182C380.04 68.8136 379.263 68.7089 378.566 68.615L378.541 68.6116L378.539 68.6114C377.391 68.4566 376.462 68.3315 376.129 68.2843L375.17 68.1829L376.129 69.0703C379.741 72.4679 385.074 75.1048 390.604 76.2711C398.448 77.9192 406.207 75.2823 410.806 69.4L412.104 67.7012L412.612 70.2874C415.998 87.9089 416.365 97.6198 414.023 109.917C413.769 111.185 413.628 112.376 413.684 112.528C413.741 112.706 414.644 111.945 415.688 110.855C422.77 103.477 425.309 92.4221 422.488 81.1392C421.02 75.1808 418.284 69.8563 414.051 64.684C413.628 64.2022 413.628 64.0247 414.051 62.6556C414.728 60.399 414.898 55.7591 414.362 53.2236C414.136 52.0573 413.825 50.9924 413.713 50.891C413.572 50.7642 412.979 51.7277 412.358 53.0208ZM447.318 70.7438C446.302 68.7154 443.396 64.7093 441.646 62.8838L440.63 61.7936L442.154 62.326C447.6 64.253 452.34 68.3097 454.964 73.3046C456.629 76.4233 457.165 78.6798 457.193 82.838L457.221 86.4638L458.971 87.0469C461.708 87.9343 463.796 89.1513 466.109 91.2304C469.58 94.3491 471.132 97.6706 471.386 102.513C471.611 106.773 470.37 111.565 468 115.698L467.097 117.219L466.927 113.238C466.532 104.795 465.235 100.586 462.074 97.4424C459.366 94.7294 455.613 93.4363 449.688 93.1321L446.104 92.9546L447.318 89.8613C449.152 85.2467 449.603 83.2437 449.575 79.694C449.547 76.2204 448.982 73.9385 447.318 70.7438ZM443.395 109.689C437.16 118.208 430.416 126.043 425.563 130.327C421.839 133.674 420.089 134.891 417.155 136.134C413.064 137.909 410.157 137.68 406.8 135.398C403.527 133.167 401.918 131.063 394.864 119.704L390.914 113.34L390.717 120.464C390.463 128.477 390.181 129.998 388.262 133.725C386.654 136.793 385.074 138.745 382.055 141.433C378.753 144.349 376.214 145.971 370.938 148.456L366.931 150.332L368.878 150.18C373.054 149.825 378.697 148.228 382.562 146.326C386.823 144.247 391.196 140.622 393.764 137.046C394.526 135.982 395.203 135.094 395.288 135.094C395.372 135.094 395.908 135.703 396.501 136.463C398.025 138.365 401.1 141.078 403.075 142.244C411.737 147.366 422.064 144.425 431.037 134.283L432.758 132.331L433.238 133.522C435.213 138.264 439.981 143.411 445.399 146.656C452.283 150.763 461.341 152.766 469.015 151.854C471.837 151.499 475.336 150.611 474.969 150.332C474.828 150.206 472.57 149.394 469.918 148.532C457.673 144.475 449.546 140.774 442.126 135.855C439.445 134.08 436.003 131.646 435.015 130.835L434.254 130.201L435.044 129.161C437.273 126.245 440.828 119.755 442.831 114.937C444.185 111.666 445.54 107.686 445.455 107.28C445.399 107.128 444.496 108.193 443.395 109.689ZM339.393 141.053C341.452 131.747 349.099 122.772 358.692 118.36C361.316 117.168 361.993 116.915 361.993 117.219C361.993 117.295 361.485 118.259 360.893 119.349C359.877 121.174 358.297 123.608 351.779 133.573C348.563 138.517 347.011 141.103 345.656 143.918C344.33 146.631 342.524 151.169 342.524 151.778C342.524 152.031 343.371 152.665 344.584 153.35C350.114 156.418 357.563 162.122 362.219 166.838C364.928 169.602 368.68 174.115 370.204 176.473C370.881 177.487 371.079 177.614 372.602 177.918C375.988 178.603 381.744 180.555 386.4 182.609C393.228 185.626 399.069 189.176 404.176 193.461L406.151 195.109L406.066 190.139C406.01 186.818 406.066 185.246 406.264 185.423C406.405 185.55 408.126 189.277 410.045 193.664C413.854 202.335 415.97 206.645 418.199 210.398C423.616 219.5 429.4 224.546 436.511 226.295C439.05 226.929 445.85 226.929 449.18 226.27C451.127 225.89 455.105 224.799 458.35 223.735C459.563 223.329 453.948 227.817 451.832 228.932C449.546 230.149 445.991 231.493 443.903 231.949L442.718 232.203L443.537 233.8C449.236 245.159 446.725 258.217 437.357 265.621C433.464 268.714 427.228 271.325 422.883 271.68C421.415 271.807 421.246 271.883 421.246 272.39C421.246 273.531 420.4 277.36 419.666 279.414C418.058 283.977 415.772 287.502 412.217 290.874C407.562 295.286 403.019 297.618 394.808 299.773C394.582 299.85 394.808 300.458 395.457 301.599C396.727 303.856 398.053 307.608 398.561 310.296C398.758 311.487 398.956 314.099 398.956 316.127C398.956 319.576 398.561 322.162 397.347 326.65C397.235 327.106 397.658 327.334 400.395 328.424C404.176 329.92 409.367 332.811 411.991 334.915C413.007 335.727 413.938 336.411 413.995 336.411C414.079 336.411 414.22 335.929 414.333 335.321C414.728 333.318 416.76 328.424 418.34 325.787C422.6 318.612 429.57 312.628 438.119 308.8C439.078 308.369 439.868 307.938 439.868 307.836C439.868 307.735 439.361 307.202 438.768 306.619C435.213 303.349 433.605 297.187 434.761 291.28C436.849 280.631 447.007 268.004 461.2 258.42C465.996 255.174 474.094 250.788 474.856 251.016C475.166 251.092 472.937 253.602 463.146 264.175C453.102 275.002 449.067 279.794 445.596 285.068C441.223 291.635 439.615 296.249 439.953 301.117C440.094 303.07 440.884 306.087 441.505 306.924C441.674 307.152 442.493 307 444.806 306.34C451.127 304.489 457.701 303.729 462.977 304.211C464.614 304.337 466.363 304.566 466.814 304.667C467.633 304.87 467.576 304.921 465.686 305.478C462.751 306.34 454.315 309.408 451.042 310.777C440.263 315.316 430.783 321.528 424.124 328.399C421.557 331.087 417.381 336.005 416.619 337.273L416.083 338.161L418.227 340.443C423.278 345.843 426.607 351.548 428.413 357.811C429.598 361.842 429.429 361.969 427.03 358.723C421.669 351.523 414.813 345.006 408.211 340.823C399.04 335.042 387.952 331.568 375.396 330.529C371.079 330.174 357.451 330.098 354.883 330.402L353.275 330.605L354.516 332.304C356.04 334.357 357.112 337.096 357.507 339.834C357.733 341.482 357.704 342.319 357.338 344.195C357.084 345.488 356.773 346.553 356.632 346.553C356.519 346.553 355.955 345.64 355.391 344.525C352.033 337.907 346.898 333.622 337.728 329.743C335.95 328.982 331.125 327.207 327.006 325.762C322.886 324.317 319.416 323.075 319.303 322.973C319.021 322.745 320.968 322.136 323.479 321.68C326.018 321.173 332.875 321.249 335.753 321.781C341.734 322.897 346.559 324.951 350.425 327.993L351.695 328.982L355.363 327.74C357.874 326.878 360.724 326.168 364.392 325.483C369.273 324.545 370.26 324.444 375.396 324.317C381.547 324.165 386.626 324.545 390.801 325.509C392.015 325.787 393.087 326.016 393.2 326.016C393.313 326.016 393.313 325.483 393.228 324.799C393.15 324.342 393.031 323.486 392.909 322.606L392.909 322.6C392.855 322.211 392.8 321.817 392.748 321.452C392.382 318.764 391.507 314.606 390.773 312.045C388.008 302.309 382.309 294.576 373.364 288.364C372.546 287.806 371.897 287.248 371.869 287.121C371.869 286.817 374.831 287.147 377.343 287.73C382.76 289.023 388.572 292.547 391.902 296.579C392.607 297.416 393.284 298.1 393.397 298.125C393.538 298.125 395.118 297.061 396.952 295.742C410.524 285.93 415.095 275.103 413.205 257.152C412.838 253.78 411.991 248.303 411.23 244.373L411.06 243.486L411.794 244.247C414.079 246.63 417.409 252.208 418.876 256.163C420.118 259.561 420.964 263.364 421.161 266.356C421.246 267.928 421.387 269.221 421.444 269.221C421.952 269.221 428.385 264.53 429.852 263.11C437.132 256.036 439.727 249.191 440.546 234.865L440.659 232.583L437.527 232.558C433.746 232.507 430.952 231.899 427.454 230.403C419.243 226.878 412.64 218.892 409.029 208.116C408.493 206.519 407.985 204.769 407.872 204.262C407.838 204.102 407.811 203.966 407.767 203.835C407.482 202.996 406.46 202.408 397.941 197.507L397.827 197.442C387.585 191.559 381.688 188.01 377.173 184.942L376.737 184.655C374.942 183.472 373.562 182.564 373.562 182.634C373.562 182.685 373.816 183.268 374.154 183.953C375.057 185.88 376.129 190.241 376.299 192.928C376.468 195.312 375.819 200.078 375.283 200.357C375.17 200.433 374.831 199.673 374.577 198.659C373.449 194.653 370.599 189.227 367.27 184.79C362.416 178.349 358.297 173.862 344.81 160.576C336.261 152.133 332.282 148.025 332.451 147.848C332.621 147.721 335.499 148.786 338.038 149.952L339.9 150.789L339.505 149.344C338.997 147.569 338.941 143.106 339.393 141.053ZM518.788 158.345C518.421 176.27 515.712 187.477 508.799 199.622C506.542 203.603 501.943 210.144 501.407 210.144C501.322 210.144 500.814 209.206 500.278 208.04C498.755 204.744 495.566 200.002 492.575 196.58L489.838 193.436L492.434 191.078C497.541 186.463 499.657 181.164 499.319 173.71C499.206 171.022 499.009 169.653 498.444 167.802C497.4 164.455 495.058 160.246 492.801 157.787C491.108 155.911 488.794 153.933 488.54 154.161C488.484 154.212 488.936 157.254 489.528 160.956C491.729 174.673 491.729 180.378 489.528 189.48C489.189 190.875 488.851 192.117 488.766 192.219C488.682 192.345 487.835 191.762 486.904 190.951C482.079 186.843 475.646 183.192 470.087 181.392C468.931 181.012 467.971 180.758 467.915 180.809C467.858 180.834 468.592 181.417 469.523 182.051C472.74 184.232 476.746 187.604 479.37 190.241C489.754 200.763 495.453 212.477 497.428 227.386C497.965 231.468 498.021 232.913 497.908 238.922C497.767 246.731 497.4 250.763 496.441 256.163C496.074 258.242 495.623 260.93 495.453 262.096C495.284 263.288 494.635 266.305 494.043 268.815C492.632 274.748 491.814 278.881 492.067 278.729C492.378 278.552 497.174 269.779 498.501 266.939C499.121 265.621 500.109 263.187 500.701 261.513L501.802 258.521L503.354 258.673C508.856 259.257 516.418 261.336 521.355 263.643C526.547 266.052 529.905 268.866 531.739 272.34L532.444 273.658L532.247 272.644C531.993 271.275 530.949 268.967 529.848 267.37C526.237 262.071 518.054 256.797 507.643 253.045C505.724 252.335 504.116 251.726 504.059 251.676C503.974 251.625 504.313 249.571 504.765 247.137C506.062 240.317 506.486 231.518 505.724 227.132L505.555 226.219L509.335 225.154C514.132 223.785 516.502 223.354 520.791 223.075C523.923 222.872 525.108 222.923 528.607 223.43L529.735 223.608L528.184 222.847C526.208 221.858 521.976 220.641 518.731 220.134C517.264 219.881 513.709 219.652 510.295 219.551L504.398 219.399L503.467 216.23C502.959 214.48 502.479 212.883 502.394 212.68C502.282 212.401 502.733 212.046 503.918 211.437C506.429 210.144 511.311 206.088 514.076 203.02C524.29 191.61 527.845 175.332 523.387 160.246C522.907 158.674 522.145 156.544 521.694 155.479C520.847 153.578 519.239 150.561 519.042 150.561C518.985 150.561 518.872 154.06 518.788 158.345ZM350.509 217.776C345.995 208.192 342.524 197.34 341.791 190.647L341.593 188.796L342.27 189.1C343.483 189.683 347.49 193.512 349.014 195.54C351.412 198.76 353.415 202.817 354.516 206.722C355.362 209.688 355.532 210.651 355.588 213.517C355.616 215.367 355.532 217.472 355.419 218.182L355.193 219.526L357.055 218.258C359.341 216.686 362.755 215.215 366.084 214.303C368.398 213.669 369.019 213.593 373.42 213.593C376.073 213.567 378.612 213.669 379.063 213.77C379.853 213.973 379.684 214.074 376.665 215.063C366.282 218.537 360.018 223.202 356.547 230.048C354.093 234.916 353.19 239.936 353.218 248.81C353.218 252.284 353.359 256.468 353.5 258.065C353.669 259.662 353.81 261.158 353.81 261.386C353.81 261.741 354.121 261.716 356.181 261.082C358.889 260.245 362.106 259.89 364.871 260.144C366.959 260.322 369.95 261.133 370.994 261.792C371.634 262.192 371.615 262.198 368.855 263.024L368.855 263.024L368.736 263.06C364.843 264.175 360.441 266.178 357.732 268.004C353.556 270.818 350.707 274.064 345.6 281.696C342.101 286.919 341.819 287.248 341.565 286.564C341.057 285.042 340.859 281.645 341.142 279.388C341.988 272.543 345.6 266.939 351.694 263.034C352.23 262.705 352.202 262.578 350.509 259.434C348.732 256.087 346.813 250.509 346.22 246.909C345.317 241.66 345.6 236.361 347.01 231.797C347.942 228.806 349.917 225.078 351.581 223.151C352.597 222.01 352.625 221.934 352.202 221.224C351.976 220.819 351.215 219.272 350.509 217.776ZM506.091 291.736C505.16 300.281 503.777 307.735 501.661 315.417C496.356 334.662 487.412 350.027 472.796 365.113C471.216 366.735 469.833 368.079 469.721 368.079C469.58 368.105 469.495 367.851 469.495 367.521C469.495 366.533 467.83 361.056 466.645 358.14C464.444 352.816 461.284 347.314 457.926 343.054C457.136 342.015 456.431 341.229 456.375 341.279C456.318 341.33 456.967 343.865 457.814 346.933C464.021 369.651 463.88 380.731 457.278 386.259C454.287 388.769 450.901 390.062 445.371 390.797C440.687 391.431 430.642 391.33 420.484 390.594C419.158 390.493 419.581 390.746 422.939 392.09C430.896 395.26 438.317 396.832 445.653 396.832C449.716 396.832 451.747 396.553 455.556 395.462C460.551 394.043 465.234 390.442 467.492 386.335C469.721 382.278 470.793 376.167 470.144 371.426L469.862 369.55L470.68 369.144C484.957 362.019 497.118 349.241 503.467 334.763C508.743 322.669 510.746 309.129 508.997 297.06C508.489 293.46 507.304 288.389 506.796 287.578C506.655 287.375 506.373 289.175 506.091 291.736ZM490.657 391.304C492.773 387.121 498.049 375.457 499.291 372.212L499.827 370.843L499.911 371.832C500.052 373.201 499.46 378.018 498.67 382.126C495.143 400.28 486.283 417.191 474.997 427.308C472.486 429.59 468.225 432.709 465.742 434.128C461.312 436.664 454.851 438.946 449.744 439.757C446.161 440.34 439.276 440.34 435.636 439.757C430.67 438.971 423.757 436.867 420.512 435.168L419.356 434.559L418.876 437.399C417.381 446.172 412.527 453.094 405.671 456.162C403.611 457.1 400.169 458.038 399.859 457.759C399.774 457.683 400.508 456.872 401.467 456.01C406.179 451.699 408.888 446.426 410.27 438.921C411.06 434.534 411.342 427.764 411.173 416.532L411.06 406.771L412.076 408.165C415.942 413.363 418.848 422.085 419.186 429.489L419.356 433.216L421.359 433.621C432.476 435.853 441.815 435.726 450.167 433.241C465.714 428.576 478.58 415.265 490.657 391.304ZM338.01 378.83C338.01 379.007 342.637 381.669 346.052 383.47C347.603 384.281 350.961 385.777 353.529 386.791L358.184 388.617L363.827 393.764C371.135 400.432 377.089 406.162 381.321 410.625C383.409 412.83 384.792 414.073 384.905 413.895C385.243 413.439 385.158 411.258 384.735 409.053C383.748 404.083 380.785 398.911 376.496 394.753L374.549 392.876L375.537 393.054C379.346 393.738 382.647 394.017 388.798 394.144C394.978 394.271 396.134 394.22 399.802 393.738C412.725 391.963 422.601 387.856 429.372 381.416C430.642 380.199 431.686 379.159 431.686 379.058C431.686 378.956 429.965 379.641 427.905 380.554C421.698 383.318 414.023 385.321 406.151 386.259C404.289 386.487 399.774 386.715 396.106 386.791C382.168 387.095 370.345 385.574 346.193 380.402C338.772 378.83 338.01 378.678 338.01 378.83ZM410.524 483.57C411.85 482.328 413.938 480.173 415.179 478.804L417.437 476.268L417.521 477.358C417.662 479.032 417.098 481.821 416.054 484.559C410.213 499.899 390.829 503.677 377.681 492.013C376.298 490.796 375.254 489.732 375.339 489.656C375.395 489.579 376.975 489.833 378.781 490.188C395.005 493.459 401.41 492.115 410.524 483.57ZM161.013 55.6577C160.025 57.2297 159.771 64.5319 160.646 67.3716C161.098 68.8422 161.098 69.0196 160.674 69.5267C155.059 76.3725 151.956 83.8015 151.25 92.0164C150.489 101.17 153.254 109.638 159.038 115.672C160.082 116.788 160.985 117.523 161.041 117.371C161.098 117.194 160.957 116.002 160.703 114.734C158.474 102.944 158.699 93.7406 161.718 77.5135L162.621 72.544L163.947 74.2174C166.656 77.7163 170.381 80.0236 175.036 81.0885C182.118 82.7112 191.147 80.0997 197.919 74.5216C198.709 73.8878 199.358 73.3046 199.414 73.2032C199.499 73.0257 198.878 73.1018 193.828 73.761C185.194 74.902 179.579 74.8005 175.713 73.4821C173.964 72.8989 171.368 71.2762 169.957 69.9071C167.728 67.7519 165.02 63.467 162.508 58.1425L162.335 57.7751C161.469 55.9355 161.264 55.5011 161.136 55.5225C161.096 55.5291 161.064 55.5793 161.021 55.6451L161.013 55.6577ZM121.596 75.1301C124.022 71.9608 128.255 68.7914 132.007 67.3716C133.023 66.9659 133.898 66.6363 133.954 66.6363C134.011 66.6363 133.475 67.2955 132.741 68.0815C130.738 70.3127 128.424 73.5328 127.352 75.6626C125.772 78.7051 125.207 81.0124 125.179 84.5114C125.123 88.0611 125.546 90.0387 127.408 94.6787L128.621 97.7719L125.32 97.9494C119.649 98.2537 116.235 99.2679 113.526 101.474C109.83 104.466 108.25 109.055 107.827 117.853L107.629 122.036L106.726 120.515C105.485 118.36 104.187 114.937 103.651 112.351C103.115 109.739 103.227 105.683 103.933 103.274C105.428 98.2283 109.519 94.1462 115.247 92.0671L117.505 91.2558L117.533 87.63C117.561 84.8156 117.702 83.5733 118.153 82.052C118.831 79.77 120.326 76.8035 121.596 75.1301ZM129.214 112.123C129.214 112.731 131.33 118.538 132.656 121.529C134.18 124.952 137.143 130.327 138.949 132.939L140.444 135.043L139.541 135.779C137.792 137.249 133.334 140.292 129.694 142.523C123.345 146.428 115.388 149.876 104.102 153.603C101.845 154.338 99.8981 155.048 99.757 155.15C99.6159 155.251 100.35 155.556 101.337 155.834C109.886 158.218 120.975 156.468 129.44 151.397C134.829 148.203 139.541 143.056 141.488 138.34L141.968 137.148L143.689 139.1C154.072 150.84 165.979 152.792 175.29 144.298C176.306 143.385 177.632 142.016 178.225 141.281C178.817 140.52 179.353 139.912 179.438 139.912C179.523 139.912 180.2 140.799 180.962 141.864C184.432 146.681 190.301 150.865 196.509 152.969C199.217 153.882 203.45 154.795 205.82 154.998L207.795 155.15L203.788 153.274C198.512 150.789 195.972 149.166 192.671 146.25C189.652 143.563 188.072 141.61 186.464 138.542C184.545 134.841 184.263 133.319 184.009 125.307L183.811 118.157L179.156 125.662C173.485 134.815 172.243 136.489 169.704 138.796C166.995 141.23 165.076 142.067 162.227 142.067C160.308 142.067 159.828 141.94 157.712 141.027C154.636 139.683 152.944 138.517 149.163 135.17C144.394 130.961 139.485 125.307 132.544 116.103C130.71 113.669 129.214 111.869 129.214 112.123ZM218.855 132.178C216.429 128.527 212.733 122.442 212.733 122.087C212.733 121.808 212.958 121.859 215.159 122.797C224.978 126.854 233.161 136.21 235.333 145.87C235.785 147.898 235.728 152.361 235.221 154.161L234.826 155.606L236.688 154.77C239.312 153.578 242.105 152.538 242.274 152.69C242.472 152.868 240.186 155.226 229.662 165.647C216.457 178.73 211.914 183.623 207.428 189.658C204.155 194.019 201.249 199.546 200.148 203.476C199.895 204.49 199.556 205.251 199.443 205.175C199.33 205.124 199.02 203.983 198.738 202.639C197.948 198.633 198.597 193.664 200.487 189.151C200.583 188.911 200.675 188.683 200.759 188.475L200.759 188.475L200.762 188.467L200.764 188.463C200.997 187.884 201.164 187.47 201.164 187.452C201.164 187.401 199.556 188.466 197.581 189.784C193.207 192.726 186.323 196.884 176.334 202.614L175.057 203.346C168.415 207.15 167.312 207.781 166.957 208.701C166.886 208.884 166.845 209.078 166.795 209.311C166.779 209.39 166.761 209.473 166.741 209.561C165.754 213.719 163.242 219.551 160.703 223.405C154.806 232.406 146.539 237.325 137.171 237.375L134.011 237.401L134.152 238.922C134.168 239.157 134.19 239.474 134.217 239.841C134.283 240.781 134.373 242.048 134.434 243.106C135.083 254.033 138.215 261.437 144.874 267.928C146.059 269.094 152.774 274.038 153.169 274.038C153.282 274.038 153.48 272.745 153.564 271.173C153.903 266.102 155.511 260.93 158.446 255.656C160.139 252.563 163.242 248.227 163.553 248.506C163.609 248.582 163.496 249.596 163.242 250.763C158.135 276.118 161.916 289.125 177.773 300.56C179.607 301.878 181.188 302.943 181.329 302.943C181.441 302.918 182.119 302.233 182.824 301.371C186.153 297.339 192.135 293.79 197.807 292.446C199.951 291.964 202.942 291.66 202.829 291.99C202.773 292.116 201.757 292.902 200.6 293.739C191.938 299.9 186.549 307.532 183.868 317.395C183.445 318.866 182.937 320.97 182.711 322.086C182.316 323.886 182.147 324.976 181.498 329.616C181.413 330.301 181.413 330.833 181.526 330.833C181.639 330.833 182.711 330.605 183.896 330.326C188.89 329.185 197.383 328.754 203.732 329.312C207.964 329.667 215.3 331.213 219.363 332.557L223.031 333.8L224.301 332.811C226.248 331.264 229.154 329.616 231.609 328.653C235.644 327.081 241.343 326.016 245.604 326.016C248.962 326.016 256.044 327.283 255.451 327.791C255.31 327.892 252.347 328.982 248.849 330.199C238.55 333.774 235.672 334.941 231.637 337.121C225.909 340.24 221.959 344.195 219.222 349.52C218.714 350.534 218.206 351.37 218.065 351.37C217.953 351.37 217.642 350.306 217.388 349.013C217.021 347.136 216.993 346.3 217.219 344.651C217.614 341.913 218.686 339.175 220.21 337.146L221.451 335.448L220.548 335.296C220.04 335.22 216.598 335.093 212.874 334.991C193.405 334.51 178.197 338.085 166.036 345.995C162.424 348.353 160.026 350.28 156.217 353.906C152.492 357.481 150.686 359.509 147.667 363.566C145.297 366.761 145.128 366.659 146.313 362.628C148.175 356.137 151.759 350.23 157.543 344.144L158.643 342.978L158.107 342.091C157.825 341.609 156.471 339.91 155.144 338.313C144.394 325.509 132.459 318.054 111.636 311.158L111.636 311.158L111.634 311.157L111.633 311.157C109.064 310.307 107.781 309.882 107.813 309.616C107.845 309.351 109.185 309.243 111.862 309.028C117.279 308.597 123.74 309.358 129.948 311.158C132.233 311.842 133.052 311.969 133.221 311.741C133.898 310.828 134.66 307.887 134.773 305.681C135.083 300.889 133.475 296.427 129.13 289.885C125.716 284.713 121.54 279.718 112.172 269.627C103.425 260.22 99.5878 255.96 99.7007 255.834C99.9264 255.656 102.438 256.772 105.739 258.547C119.141 265.671 131.387 277.106 136.833 287.578C141.798 297.061 141.432 305.833 135.817 311.741L134.829 312.781L137.594 314.074C145.438 317.775 152.238 323.708 156.245 330.402C157.938 333.191 159.998 338.059 160.393 340.138C160.505 340.747 160.647 341.229 160.703 341.229C160.788 341.229 161.747 340.519 162.876 339.657C165.81 337.375 169.958 335.067 173.993 333.419C177.012 332.177 177.491 331.898 177.378 331.467C176.193 327.081 175.77 324.368 175.77 321.072C175.77 315.417 176.842 310.879 179.184 306.695L180.285 304.743L177.52 303.982C171.538 302.309 166.515 299.52 162.311 295.489C157.684 291.102 154.665 285.271 153.705 278.856L153.395 276.65L151.674 276.498C149.247 276.27 144.507 274.774 141.798 273.354C133.644 269.069 128.65 261.412 128.199 252.487C127.945 247.872 129.017 242.979 131.189 238.618L132.008 237.02L130.823 236.767C128.594 236.26 125.151 234.967 122.894 233.775C120.778 232.634 115.135 228.121 116.376 228.552C123.769 231.011 128.142 231.797 133.306 231.645C136.325 231.544 137.369 231.392 139.231 230.834C146.736 228.552 152.125 223.304 157.966 212.553C160.562 207.812 161.691 205.403 165.754 196.072C167.08 193.005 168.321 190.368 168.462 190.241C168.66 190.063 168.716 191.61 168.66 195.058L168.547 200.129L170.55 198.38C177.915 191.864 189.906 185.804 200.656 183.116C202.095 182.761 203.421 182.432 203.591 182.381C203.76 182.33 204.409 181.519 205.03 180.555C210.137 172.848 220.859 163.314 230.255 158.091C231.383 157.483 232.201 156.849 232.201 156.595C232.201 155.987 230.396 151.448 229.07 148.735C227.32 145.16 225.232 141.763 218.855 132.178ZM54.3862 157.66C51.875 162.325 50.2667 167.954 49.6178 174.267C48.6584 183.953 51.3671 194.703 56.841 202.944C60.1422 207.913 66.4625 213.948 70.6949 216.179C71.9646 216.838 72.4443 217.218 72.3314 217.497C72.2467 217.7 71.7671 219.297 71.2592 221.047L70.3281 224.216L64.2899 224.394C56.0509 224.622 51.2261 225.484 47.1066 227.512L45.2726 228.4L46.5423 228.222C47.2477 228.096 49.9846 228.019 52.6086 228.045C56.5024 228.045 57.9132 228.172 60.0858 228.628C62.992 229.211 68.748 230.859 68.9455 231.138C69.0019 231.24 68.9455 232.71 68.7762 234.409C68.353 238.795 68.8609 246.275 69.9331 251.954C70.4127 254.388 70.7513 256.442 70.6667 256.493C70.6102 256.544 69.0302 257.152 67.1679 257.811C56.8128 261.564 48.6867 266.787 44.9058 272.111C43.9182 273.506 42.7049 276.219 42.4792 277.461C42.3099 278.45 42.3381 278.425 43.1282 276.954C44.934 273.582 48.3763 270.768 53.6526 268.334C58.28 266.178 66.1804 264.049 71.4003 263.491L72.9521 263.339L74.0243 266.331C74.6169 268.004 75.6044 270.438 76.2252 271.756C77.5513 274.622 82.3479 283.369 82.6583 283.546C82.9123 283.699 82.1222 279.718 80.6832 273.531C80.0625 270.945 79.3853 267.522 79.1314 265.925C78.8774 264.327 78.426 261.691 78.1438 260.093C77.3256 255.859 76.9588 251.219 76.8177 243.587C76.7048 237.756 76.7612 236.209 77.2691 232.304C79.6957 214.125 88.0193 199.825 102.635 188.77C103.989 187.756 105.513 186.666 106.021 186.336C106.529 186.007 106.896 185.702 106.839 185.652C106.783 185.576 105.795 185.829 104.638 186.209C99.0798 188.01 92.6467 191.661 87.8218 195.768C86.8907 196.58 86.016 197.137 85.9313 197.011C85.8467 196.884 85.3952 195.084 84.9438 193.004C83.533 186.742 83.1944 181.62 83.7869 175.662C84.0691 173.101 85.8185 161.539 86.2417 159.587C86.3828 158.928 86.3546 158.902 85.8467 159.156C84.8027 159.638 81.8119 162.553 80.5139 164.303C77.2409 168.689 75.6326 173.228 75.4069 178.527C75.1812 183.851 75.9148 186.995 78.4542 191.433C79.3853 193.055 80.26 194.069 82.2915 195.895L84.8874 198.253L82.1504 201.397C79.1596 204.82 76.338 209.003 74.6169 212.553C74.0243 213.795 73.46 214.886 73.4036 214.962C73.2061 215.19 71.9928 213.643 69.5663 210.144C60.0011 196.199 56.4178 183.902 55.8817 162.984L55.6841 155.251L54.3862 157.66ZM221.535 207.609C223.849 202.31 227.602 197.365 231.439 194.627C232.201 194.095 232.878 193.664 232.963 193.664C233.471 193.664 232.116 200.915 230.734 205.58C228.956 211.64 224.667 222.289 222.495 226.042C222.1 226.752 222.128 226.828 223.172 228.019C226.135 231.493 228.279 236.894 228.843 242.294C229.605 249.343 227.771 257.786 223.99 264.784C222.551 267.421 222.523 267.522 223.059 267.852C229.069 271.731 232.681 277.258 233.584 284.104C233.894 286.259 233.64 290.24 233.16 291.508C232.935 292.091 232.511 291.559 229.125 286.513C225.175 280.58 223.313 278.273 220.35 275.534C216.57 272.061 211.97 269.627 205.876 267.852C203.054 267.04 203.026 267.015 203.703 266.609C207.258 264.581 214.848 264.353 219.448 266.178C220.153 266.457 220.745 266.66 220.802 266.635C221.084 266.356 221.507 258.623 221.507 253.501C221.535 244.728 220.633 239.733 218.178 234.865C214.679 227.969 208.105 223.151 197.496 219.703L194.843 218.841L196.311 218.537C198.455 218.131 203.534 218.182 206.243 218.664C210.56 219.399 214.989 221.148 218.15 223.38L219.589 224.419L219.419 223.633C218.46 219.373 219.363 212.604 221.535 207.609ZM67.5912 293.308C66.8576 295.463 66.0675 299.165 65.5596 302.943C65.1928 305.63 65.1364 307.659 65.2493 312.451C65.3339 315.798 65.5596 319.398 65.7289 320.438C66.914 327.613 68.6634 333.597 71.2592 339.58C77.2409 353.247 88.499 365.544 101.45 372.567L104.779 374.367L104.667 375.61C104.582 376.294 104.554 378.449 104.554 380.402C104.61 383.317 104.751 384.408 105.344 386.487C106.388 390.163 107.968 392.851 110.394 395.184C114.486 399.063 118.803 400.838 125.913 401.598C132.882 402.334 144.112 400.229 152.351 396.654L155.031 395.488L151.646 395.64L150.87 395.671L149.997 395.707L149.983 395.707C147.97 395.788 145.221 395.899 143.04 395.995C131.866 396.451 124.276 395.412 119.734 392.724C112.144 388.312 110.564 379.438 114.288 362.273C114.993 358.977 117.843 348.049 118.379 346.452C118.718 345.513 117.9 346.35 115.812 349.165C113.357 352.511 110.366 357.709 108.645 361.639C107.375 364.53 105.626 369.981 105.315 371.832C105.231 372.44 105.09 372.922 104.977 372.897C104.723 372.871 99.3338 367.268 96.7379 364.301C80.655 346.021 71.6824 324.393 68.6916 296.858L68.6703 296.656L68.6702 296.656C68.332 293.448 68.2126 292.316 68.0356 292.307C67.939 292.302 67.8253 292.631 67.6495 293.14L67.5912 293.308ZM76.1687 387.628C75.4351 383.926 74.7579 378.779 74.7861 376.979V375.584L75.3787 376.979C88.2732 407.81 99.9263 424.798 114.034 433.292C117.9 435.599 119.31 436.284 122.781 437.475C131.556 440.518 140.754 440.822 153.367 438.439L155.37 438.058L155.539 434.331C155.878 426.497 158.953 417.749 163.355 411.968C163.553 411.715 163.609 415.62 163.609 424.519C163.553 438.312 163.75 441.126 165.076 446.628C166.487 452.46 169.139 457.049 173.4 461.005C174.331 461.892 174.867 462.577 174.67 462.627C174.021 462.83 169.704 461.436 167.954 460.472C161.013 456.669 157.035 450.229 155.596 440.543L155.427 439.352L154.241 439.96C152.492 440.873 147.216 442.774 144.31 443.51C135.788 445.69 126.929 445.589 119.057 443.231C113.103 441.431 108.222 438.87 102.804 434.712C90.1355 424.925 80.1189 407.227 76.1687 387.628ZM143.04 383.825C143.04 383.951 144.084 385.016 145.353 386.233C152.153 392.699 161.944 396.781 174.923 398.556C178.62 399.037 179.692 399.088 186.21 398.961C191.571 398.835 194.195 398.683 196.508 398.302C197.032 398.217 197.535 398.135 197.985 398.061C199.012 397.892 199.759 397.77 199.838 397.77C199.951 397.77 199.02 398.835 197.722 400.128C193.772 404.134 191.232 408.546 190.132 413.363C189.596 415.696 189.455 418.206 189.821 418.713C189.934 418.89 191.345 417.623 193.518 415.341C195.464 413.312 198.06 410.675 199.274 409.484C202.97 405.858 216.767 393.206 217.021 393.206C217.727 393.206 226.417 389.453 229.38 387.881C233.556 385.676 236.716 383.85 236.716 383.672C236.716 383.495 236.151 383.596 227.969 385.346C209.544 389.251 200.572 390.696 189.793 391.431C184.291 391.837 172.977 391.634 168.434 391.076C159.659 389.986 151.194 387.653 144.987 384.56C143.914 384.053 143.04 383.698 143.04 383.825ZM157.684 486.131C157.401 484.863 157.147 483.241 157.147 482.505C157.147 481.795 157.204 481.187 157.26 481.187C157.317 481.187 158.361 482.303 159.574 483.646C164.004 488.641 168.97 492.799 172.525 494.447C178.648 497.313 183.557 497.389 196.649 494.904C198.117 494.625 199.358 494.447 199.443 494.498C199.499 494.574 198.427 495.614 197.044 496.831C193.969 499.569 190.639 501.42 186.717 502.662C183.924 503.524 183.67 503.575 179.72 503.575C175.967 503.601 175.459 503.55 173.371 502.916C165.217 500.38 159.574 494.346 157.684 486.131Z" fill="#F3F1EF" fill-opacity="0.8"/>
</g>
<defs>
<clipPath id="clip0_669_453">
<rect width="287" height="535" fill="white"/>
</clipPath>
</defs>
</svg>
