<?xml version="1.0" encoding="iso-8859-1"?>
<!-- Generator: Adobe Illustrator 19.0.0, SVG Export Plug-In . SVG Version: 6.00 Build 0)  -->
<svg version="1.1" id="Capa_1" xmlns="http://www.w3.org/2000/svg" xmlns:xlink="http://www.w3.org/1999/xlink" x="0px" y="0px"
	 viewBox="0 0 511.999 511.999" style="enable-background:new 0 0 511.999 511.999;" xml:space="preserve">
<g>
	<g>
		<path d="M429.198,245.999c4.143,0,7.5-3.358,7.5-7.5V84.755c0-1.889-0.764-3.871-2.196-5.303L357.247,2.197
			C355.885,0.834,353.944,0,351.943,0H90.66c-8.469,0-15.359,6.89-15.359,15.359v482.035c0,8.054,6.552,14.605,14.605,14.605
			h333.519c7.318,0,13.273-5.954,13.273-13.274V273.501c0-4.142-3.357-7.5-7.5-7.5s-7.5,3.358-7.5,7.5v223.498H90.301V15.359
			c0-0.198,0.161-0.358,0.358-0.358h253.783v63.56c0,7.552,6.143,13.694,13.694,13.694h63.561v146.244
			C421.697,242.641,425.055,245.999,429.198,245.999z M359.443,77.255V25.609c8.165,8.165,46.458,46.457,51.647,51.646H359.443z"/>
	</g>
</g>
<g>
	<g>
		<path d="M350.114,266.304H193.491c-4.143,0-7.5,3.358-7.5,7.5c0,4.142,3.357,7.5,7.5,7.5h156.623c4.143,0,7.5-3.358,7.5-7.5
			C357.614,269.662,354.257,266.304,350.114,266.304z"/>
	</g>
</g>
<g>
	<g>
		<path d="M303.056,224.6h-98.654c-4.142,0-7.5,3.358-7.5,7.5c0,4.142,3.357,7.5,7.5,7.5h98.654c4.143,0,7.5-3.358,7.5-7.5
			C310.556,227.958,307.199,224.6,303.056,224.6z"/>
	</g>
</g>
<g>
	<g>
		<path d="M350.114,308.008H193.491c-4.143,0-7.5,3.358-7.5,7.5s3.357,7.5,7.5,7.5h156.623c4.143,0,7.5-3.358,7.5-7.5
			S354.257,308.008,350.114,308.008z"/>
	</g>
</g>
<g>
	<g>
		<path d="M303.057,349.71h-95.676c-4.143,0-7.5,3.358-7.5,7.5s3.357,7.5,7.5,7.5h95.676c4.143,0,7.5-3.358,7.5-7.5
			S307.2,349.71,303.057,349.71z"/>
	</g>
</g>
<g>
	<g>
		<path d="M350.114,391.415H193.491c-4.143,0-7.5,3.358-7.5,7.5c0,4.142,3.357,7.5,7.5,7.5h156.623c4.143,0,7.5-3.358,7.5-7.5
			C357.614,394.773,354.257,391.415,350.114,391.415z"/>
	</g>
</g>
<g>
	<g>
		<path d="M350.114,433.118H193.491c-4.143,0-7.5,3.358-7.5,7.5c0,4.142,3.357,7.5,7.5,7.5h156.623c4.143,0,7.5-3.358,7.5-7.5
			C357.614,436.476,354.257,433.118,350.114,433.118z"/>
	</g>
</g>
<g>
	<g>
		<path d="M157.378,266.304h-5.589c-4.143,0-7.5,3.358-7.5,7.5c0,4.142,3.357,7.5,7.5,7.5h5.589c4.143,0,7.5-3.358,7.5-7.5
			C164.878,269.662,161.52,266.304,157.378,266.304z"/>
	</g>
</g>
<g>
	<g>
		<path d="M157.378,308.008h-5.589c-4.143,0-7.5,3.358-7.5,7.5s3.357,7.5,7.5,7.5h5.589c4.143,0,7.5-3.358,7.5-7.5
			S161.52,308.008,157.378,308.008z"/>
	</g>
</g>
<g>
	<g>
		<path d="M157.378,391.415h-5.589c-4.143,0-7.5,3.358-7.5,7.5c0,4.142,3.357,7.5,7.5,7.5h5.589c4.143,0,7.5-3.358,7.5-7.5
			C164.878,394.773,161.52,391.415,157.378,391.415z"/>
	</g>
</g>
<g>
	<g>
		<path d="M157.378,433.118h-5.589c-4.143,0-7.5,3.358-7.5,7.5c0,4.142,3.357,7.5,7.5,7.5h5.589c4.143,0,7.5-3.358,7.5-7.5
			C164.878,436.476,161.52,433.118,157.378,433.118z"/>
	</g>
</g>
<g>
	<g>
		<path d="M254.641,57.672h-34.406c-4.143,0-7.5,3.358-7.5,7.5c0,4.142,3.357,7.5,7.5,7.5h32.89V175.61h-11.672v-15.962
			c0-12.59-7.953-23.352-19.096-27.54c5.916-5.358,9.639-13.096,9.639-21.687c0-16.135-13.126-29.261-29.261-29.261
			c-16.135,0-29.262,13.126-29.262,29.261c0,8.591,3.723,16.33,9.64,21.687c-11.144,4.187-19.097,14.951-19.097,27.54v15.962
			h-11.672V72.672h32.889c4.143,0,7.5-3.358,7.5-7.5c0-4.142-3.357-7.5-7.5-7.5h-34.405c-7.435,0-13.484,6.049-13.484,13.484
			v105.969c0,7.435,6.049,13.484,13.484,13.484c11.207,0.002,93.169,0.002,103.813,0.002c7.436,0,13.484-6.049,13.484-13.484V71.156
			C268.125,63.721,262.075,57.672,254.641,57.672z M202.735,96.16c7.862,0,14.26,6.396,14.26,14.26s-6.396,14.261-14.26,14.261
			s-14.261-6.397-14.261-14.261S194.871,96.16,202.735,96.16z M226.451,175.61h-47.436v-15.962h0.001
			c0-7.945,6.465-14.411,14.411-14.411h18.614c7.945,0,14.41,6.464,14.41,14.411V175.61z"/>
	</g>
</g>
<g>
</g>
<g>
</g>
<g>
</g>
<g>
</g>
<g>
</g>
<g>
</g>
<g>
</g>
<g>
</g>
<g>
</g>
<g>
</g>
<g>
</g>
<g>
</g>
<g>
</g>
<g>
</g>
<g>
</g>
</svg>
