<svg width="240" height="50" viewBox="0 0 240 50" fill="none" xmlns="http://www.w3.org/2000/svg">
<mask id="path-1-inside-1_642_393" fill="white">
<path d="M64 0H236C238.209 0 240 1.79086 240 4V50H64V0Z"/>
</mask>
<path d="M64 -1H236C238.761 -1 241 1.23858 241 4H239C239 2.34315 237.657 1 236 1H64V-1ZM241 51H64V49H239L241 51ZM64 50V0V50ZM236 -1C238.761 -1 241 1.23858 241 4V51L239 49V4C239 2.34315 237.657 1 236 1V-1Z" fill="#FAFAFA" mask="url(#path-1-inside-1_642_393)"/>
<path fill-rule="evenodd" clip-rule="evenodd" d="M2 0H0V50H2V0ZM64 0H5V46C5 48.2091 6.79086 50 9 50H64V0ZM34.2199 5.06966H9.67293V46H35.1207V40.2011H17.7239V10.8686H34.2199V5.06966ZM20.5952 25.4504C20.2949 26.126 20.051 26.7641 19.8633 27.3646H32.3057V21.6783H25.4933C24.6676 21.6783 23.9357 21.8659 23.2976 22.2413C22.6971 22.5791 22.1716 23.0295 21.7212 23.5925C21.2708 24.1555 20.8955 24.7748 20.5952 25.4504ZM47.8384 18.4691C47.5006 17.6809 47.1815 17.1555 46.8813 16.8927H40.9134C41.2512 18.2064 41.4765 19.4638 41.5891 20.6649C41.7392 21.8284 41.8143 22.9356 41.8143 23.9866V46H49.1896V32.4316C49.1896 31.0429 49.321 29.7667 49.5837 28.6032C49.884 27.4021 50.2968 26.3887 50.8223 25.563C51.3478 24.6997 51.9858 24.0241 52.7365 23.5362C53.4872 23.0482 54.3505 22.8043 55.3263 22.8043C55.7767 22.8043 56.2459 22.8418 56.7338 22.9169C57.2593 22.9919 57.8974 23.1421 58.648 23.3673L59.5489 17.0053C58.1976 16.5549 56.9778 16.3297 55.8893 16.3297C54.6883 16.3297 53.4684 16.7426 52.2298 17.5683C51.0287 18.3941 50.0529 19.5576 49.3022 21.059L48.7392 22.4102L48.6266 21.059C48.4765 20.0831 48.2137 19.2198 47.8384 18.4691ZM89.2708 9.96779C87.5818 9.96779 86.2306 10.3807 85.2172 11.2064C84.2038 12.0321 83.6971 13.0831 83.6971 14.3592C83.6971 15.6354 84.1662 16.7426 85.1046 17.6809C86.0804 18.6193 87.2627 19.5013 88.6515 20.3271C90.0778 21.1528 91.6166 21.9973 93.2681 22.8606C94.9571 23.7238 96.496 24.7185 97.8847 25.8445C99.311 26.9705 100.493 28.3029 101.432 29.8418C102.408 31.3807 102.895 33.2386 102.895 35.4155C102.895 37.2171 102.539 38.8311 101.826 40.2574C101.15 41.6461 100.174 42.8284 98.8981 43.8043C97.6595 44.7426 96.1582 45.4745 94.3941 46C92.63 46.4879 90.6783 46.7319 88.5389 46.7319C86.9249 46.7319 85.0483 46.5067 82.9089 46.0563C80.807 45.6434 78.4611 44.8365 75.8713 43.6354L78.0107 38.3995C80.0375 39.3753 81.933 40.0509 83.6971 40.4263C85.4987 40.7641 87.1126 40.933 88.5389 40.933C89.5523 40.933 90.4719 40.8016 91.2976 40.5389C92.1609 40.2386 92.8928 39.8445 93.4933 39.3566C94.1314 38.8686 94.6193 38.3056 94.9571 37.6676C95.2949 37.0295 95.4638 36.3351 95.4638 35.5844C95.4638 34.2332 94.9947 33.0697 94.0563 32.0938C93.118 31.1179 91.9357 30.2171 90.5094 29.3914C89.0831 28.5281 87.5443 27.6836 85.8928 26.8579C84.2788 26.0322 82.7587 25.0938 81.3325 24.0429C79.9062 22.9544 78.7239 21.697 77.7855 20.2708C76.8472 18.8069 76.378 17.0616 76.378 15.0348C76.378 13.1957 76.6971 11.6005 77.3351 10.2493C78.0107 8.89809 78.9115 7.79085 80.0375 6.92758C81.1635 6.0643 82.4772 5.42623 83.9786 5.01336C85.4799 4.56296 87.0751 4.33776 88.7641 4.33776C89.6274 4.33776 90.4531 4.37529 91.2413 4.45036C92.067 4.48789 92.9116 4.58173 93.7748 4.73186C94.6756 4.84446 95.5952 5.03213 96.5335 5.29486C97.5094 5.52007 98.5979 5.82034 99.799 6.19567L97.7158 11.319C96.0268 10.8311 94.5067 10.4933 93.1555 10.3056C91.8043 10.0804 90.5094 9.96779 89.2708 9.96779ZM117.992 46H110.167V5.06966H117.992V46ZM127.319 5.06966H135.426V40.1448H150.177V46H127.319V5.06966ZM167.419 46L153.063 5.06966H161.62L171.248 36.1474L171.642 38.2869L172.036 36.2037L181.663 5.06966H189.939L175.695 46H167.419ZM202.775 37.0482L199.791 46H191.853L206.547 5.06966H214.429L229.124 46H220.791L210.657 15.5415L210.207 13.4584L209.7 15.6541L204.915 30.2359L204.239 31.3619L205.084 31.2493H209.362C210.188 31.2493 210.901 31.437 211.502 31.8123C212.102 32.1877 212.628 32.6568 213.078 33.2198C213.529 33.7828 213.904 34.4209 214.204 35.134C214.542 35.8096 214.805 36.4477 214.992 37.0482H202.775Z" fill="#FAFAFA"/>
</svg>
