<svg width="16" height="16" viewBox="0 0 16 16" fill="none" xmlns="http://www.w3.org/2000/svg">
<g clip-path="url(#clip0_666_398)">
<path d="M11.6714 9.53801L11.6654 9.58801C10.1994 8.85734 10.0461 8.76001 9.85676 9.04401C9.72543 9.24068 9.34276 9.68668 9.22743 9.81868C9.11076 9.94868 8.99476 9.95868 8.79676 9.86868C8.59676 9.76868 7.95476 9.55868 7.19476 8.87868C6.60276 8.34868 6.20543 7.69868 6.08809 7.49868C5.89276 7.16134 6.30143 7.11334 6.67343 6.40934C6.74009 6.26934 6.70609 6.15934 6.65676 6.06001C6.60676 5.96001 6.20876 4.98001 6.04209 4.58934C5.88209 4.20001 5.71743 4.24934 5.59409 4.24934C5.21009 4.21601 4.92942 4.22134 4.68209 4.47868C3.60609 5.66134 3.87743 6.88134 4.79809 8.17868C6.60743 10.5467 7.57143 10.9827 9.33409 11.588C9.81009 11.7393 10.2441 11.718 10.5874 11.6687C10.9701 11.608 11.7654 11.188 11.9314 10.718C12.1014 10.248 12.1014 9.85801 12.0514 9.76801C12.0021 9.67801 11.8714 9.62801 11.6714 9.53801Z" fill="currentcolor"/>
<path d="M13.68 2.29932C8.554 -2.65602 0.0706667 0.937983 0.0673333 7.92865C0.0673333 9.32598 0.433333 10.6887 1.13067 11.892L0 16L4.22333 14.8987C9.49333 17.7453 15.9973 13.9653 16 7.93265C16 5.81532 15.1733 3.82265 13.67 2.32532L13.68 2.29932ZM14.668 7.91065C14.664 12.9993 9.078 16.1773 4.66 13.58L4.42 13.4373L1.92 14.0873L2.59 11.6573L2.43067 11.4073C-0.318667 7.03065 2.84 1.31065 8.048 1.31065C9.81733 1.31065 11.478 2.00065 12.7287 3.25065C13.9787 4.48998 14.668 6.15065 14.668 7.91065Z" fill="currentcolor"/>
</g>
<defs>
<clipPath id="clip0_666_398">
<rect width="16" height="16" fill="white"/>
</clipPath>
</defs>
</svg>
